<?xml version="1.0" encoding="UTF-8"?>
<!DOCTYPE svg PUBLIC "-//W3C//DTD SVG 1.1//EN" "http://www.w3.org/Graphics/SVG/1.1/DTD/svg11.dtd">
<!-- Creator: CorelDRAW X7 -->
<svg xmlns="http://www.w3.org/2000/svg" xml:space="preserve" width="6.58666in" height="2in" version="1.1" style="shape-rendering:geometricPrecision; text-rendering:geometricPrecision; image-rendering:optimizeQuality; fill-rule:evenodd; clip-rule:evenodd"
viewBox="0 0 6587 2000"
 xmlns:xlink="http://www.w3.org/1999/xlink">
 <defs>
  <style type="text/css">
   <![CDATA[
    .fil0 {fill:#E6E7E8}
    .fil1 {fill:#E6E7E8;fill-rule:nonzero}
   ]]>
  </style>
 </defs>
 <g id="Layer_x0020_1">
  <metadata id="CorelCorpID_0Corel-Layer"/>
  <path class="fil0" d="M1741 118l-724 274 200 175c-158,193 -315,385 -473,578 -41,49 -486,624 -510,607 -22,-16 -31,-226 -57,-283 -29,-66 -24,-15 -21,23 5,71 8,143 12,215 3,48 5,95 7,143 5,107 60,20 93,-19 32,-39 66,-77 99,-115 22,-26 44,-52 66,-78 103,-119 206,-239 309,-358 41,-48 82,-95 123,-143 160,-186 320,-372 480,-558 47,-55 93,-109 140,-163 70,-82 140,-163 211,-245 15,-17 30,-35 45,-53 -45,53 -91,106 -137,159 -187,218 -374,435 -561,652 -23,27 -46,55 -70,82 -23,27 -46,54 -70,81 -93,109 -187,218 -280,326 -136,158 -272,317 -408,475 18,-21 35,-42 53,-63 24,-27 47,-54 71,-82 257,-298 514,-597 771,-896 139,-162 278,-323 417,-485 72,-83 143,-166 214,-249z"/>
  <polygon class="fil1" points="1087,1007 1602,1007 1602,1116 1087,1116 1087,1434 1659,1434 1659,1543 963,1543 963,1150 "/>
  <path class="fil0" d="M1022 664c-44,-95 -124,-145 -229,-164 -255,-49 -427,15 -488,232 -14,147 60,239 207,287 156,41 265,62 346,104 107,55 117,134 62,224 -78,96 -252,109 -393,40 -121,-59 -144,-158 -159,-282 -35,-9 -97,-114 -136,-223l32 320c30,175 107,283 235,320 229,65 406,27 530,-112 81,-169 76,-309 -82,-400 -228,-120 -474,-73 -511,-219 -19,-156 100,-210 341,-174 73,18 120,65 139,145l106 -98z"/>
  <path class="fil0" d="M669 1447c68,-68 136,-137 204,-205 25,-25 51,-50 76,-76 158,-158 316,-317 475,-475l224 162 90 -728c-23,27 -46,54 -70,82 -22,25 -44,51 -66,77 -91,106 -183,212 -274,318 -22,26 -44,52 -66,77 -24,28 -47,55 -70,82 -47,54 -94,109 -141,163 -23,27 -46,54 -70,81 -249,290 -499,578 -747,869 -69,80 12,-3 32,-23 25,-25 50,-51 76,-76 25,-25 50,-51 75,-76 26,-25 51,-51 76,-76 24,-23 47,-47 70,-70l106 -106z"/>
  <path class="fil0" d="M626 1421l-106 107c0,0 0,0 0,0l106 -107z"/>
  <path class="fil0" d="M626 1421l-106 107c25,-25 49,-49 73,-74l33 -33z"/>
  <path class="fil1" d="M2233 980c0,24 -6,44 -17,62 -10,19 -26,34 -45,47 -19,12 -42,22 -68,28 -26,7 -54,10 -84,10 -21,0 -41,-2 -59,-5 -18,-2 -34,-6 -48,-10 -14,-4 -26,-8 -36,-13 -9,-4 -16,-8 -20,-11 -3,-3 -6,-7 -8,-12 -2,-4 -3,-11 -3,-18 0,-6 1,-11 1,-14 1,-4 2,-7 3,-9 2,-3 3,-4 5,-5 2,-1 4,-1 7,-1 4,0 11,2 19,6 8,4 19,9 32,14 13,5 29,10 47,15 18,4 40,6 63,6 19,0 35,-2 50,-6 16,-3 28,-9 39,-16 11,-7 20,-15 25,-26 6,-10 9,-21 9,-34 0,-14 -4,-26 -12,-36 -8,-10 -19,-19 -32,-27 -13,-7 -29,-14 -46,-20 -17,-6 -34,-13 -52,-19 -18,-7 -35,-14 -52,-22 -17,-8 -32,-17 -45,-28 -13,-11 -24,-23 -32,-38 -9,-14 -13,-31 -13,-51 0,-21 5,-40 15,-56 9,-16 22,-30 39,-41 18,-11 38,-19 61,-25 24,-5 49,-8 76,-8 14,0 28,1 42,3 14,2 28,4 40,7 12,3 24,7 33,11 10,4 16,7 19,10 4,2 6,4 7,5 1,2 1,4 2,6 1,2 1,5 1,8 1,3 1,7 1,12 0,4 0,8 -1,12 0,3 -1,6 -2,9 -1,2 -2,4 -4,5 -2,1 -4,2 -6,2 -4,0 -9,-2 -17,-5 -8,-4 -17,-8 -28,-13 -11,-4 -24,-8 -39,-12 -15,-4 -32,-5 -51,-5 -17,0 -33,1 -46,5 -13,4 -23,9 -32,15 -8,6 -14,13 -19,22 -4,8 -6,17 -6,26 0,14 4,26 12,36 8,10 19,19 32,26 14,8 29,15 47,21 17,7 34,13 52,20 18,6 36,13 53,21 17,8 32,17 46,28 13,10 24,23 32,37 9,15 13,32 13,51z"/>
  <path id="1" class="fil1" d="M2375 1110c0,2 -1,4 -2,5 -2,2 -4,3 -7,4 -3,1 -8,1 -13,2 -5,1 -12,1 -20,1 -8,0 -15,0 -20,-1 -6,-1 -10,-1 -13,-2 -4,-1 -6,-2 -7,-4 -1,-1 -2,-3 -2,-5l0 -476c0,-2 1,-4 2,-6 2,-1 4,-2 7,-3 4,-1 8,-2 14,-3 5,0 11,-1 19,-1 8,0 15,1 20,1 5,1 10,2 13,3 3,1 5,2 7,3 1,2 2,4 2,6l0 476z"/>
  <path id="2" class="fil1" d="M2808 1091c0,5 0,9 -1,13 -1,3 -2,6 -3,9 -2,2 -3,4 -6,5 -2,1 -4,2 -7,2l-279 0c-7,0 -14,-2 -21,-6 -6,-4 -10,-11 -10,-21l0 -459c0,-2 1,-4 2,-6 2,-1 4,-2 7,-3 3,-1 8,-2 13,-3 6,0 12,-1 20,-1 8,0 15,1 20,1 6,1 10,2 13,3 3,1 6,2 7,3 1,2 2,4 2,6l0 428 226 0c3,0 5,1 7,2 2,1 4,3 6,5 1,2 2,5 3,9 1,3 1,8 1,13z"/>
  <path id="3" class="fil1" d="M3022 1108c-1,3 -3,5 -6,7 -2,2 -5,3 -9,4 -4,1 -9,2 -16,2 -6,1 -14,1 -24,1 -7,0 -13,0 -18,0 -6,0 -10,-1 -14,-1 -4,-1 -7,-1 -10,-2 -3,-1 -5,-1 -7,-2 -2,-1 -4,-3 -5,-4 -1,-1 -2,-3 -3,-5l-206 -461c-2,-6 -4,-10 -4,-14 0,-3 1,-6 4,-7 3,-2 8,-3 14,-4 7,0 16,-1 27,-1 9,0 16,1 21,1 6,0 10,1 13,2 3,1 5,3 6,4 2,2 3,4 4,7l181 417 1 0 175 -417c1,-3 2,-5 4,-7 1,-1 3,-3 7,-4 3,-1 7,-2 13,-2 6,0 14,-1 24,-1 10,0 17,1 23,1 6,1 10,2 12,4 2,2 3,4 3,8 -1,3 -2,8 -5,13l-205 461z"/>
  <path id="4" class="fil1" d="M3622 1092c0,5 0,9 -1,12 0,4 -1,7 -3,9 -2,2 -3,4 -6,5 -2,1 -4,2 -7,2l-302 0c-7,0 -15,-2 -21,-6 -7,-4 -10,-11 -10,-21l0 -442c0,-10 3,-17 10,-21 6,-4 14,-6 21,-6l299 0c3,0 5,0 7,1 2,1 4,3 5,5 1,3 2,6 3,9 1,3 1,8 1,13 0,4 0,8 -1,12 -1,3 -2,6 -3,8 -1,3 -3,4 -5,5 -2,1 -4,2 -7,2l-246 0 0 155 211 0c3,0 5,1 7,2 2,1 4,2 5,5 2,2 3,4 4,8 0,4 1,8 1,13 0,4 -1,8 -1,12 -1,3 -2,6 -4,8 -1,2 -3,3 -5,4 -2,1 -4,1 -7,1l-211 0 0 178 249 0c3,0 5,0 7,1 3,1 4,3 6,5 2,2 3,5 3,8 1,4 1,8 1,13z"/>
  <path id="5" class="fil1" d="M4117 1110c0,2 0,3 -1,5 -1,2 -3,3 -7,4 -3,1 -7,2 -13,2 -6,1 -14,1 -23,1 -9,0 -16,0 -21,-1 -5,0 -10,-1 -13,-2 -3,-1 -6,-3 -8,-5 -1,-2 -3,-5 -4,-8l-58 -117c-7,-13 -14,-25 -21,-36 -8,-11 -16,-21 -26,-29 -10,-8 -22,-14 -36,-19 -13,-4 -30,-7 -49,-7l-56 0 0 212c0,2 -1,3 -2,5 -2,2 -4,3 -7,4 -3,1 -7,1 -12,2 -6,1 -13,1 -21,1 -8,0 -14,0 -20,-1 -5,-1 -10,-1 -13,-2 -3,-1 -5,-2 -7,-4 -1,-1 -2,-3 -2,-5l0 -459c0,-10 4,-17 10,-21 7,-4 14,-6 22,-6l133 0c16,0 29,0 40,1 11,0 20,1 28,2 25,3 46,8 65,15 19,8 34,17 47,28 13,11 22,23 28,37 7,15 10,30 10,47 0,17 -3,32 -9,45 -5,13 -14,25 -24,35 -11,10 -24,19 -39,26 -15,7 -31,14 -50,19 11,3 20,8 28,13 9,6 17,13 24,20 7,8 14,17 21,27 6,10 13,21 19,33l57 110c4,9 7,15 8,19 2,4 2,7 2,9zm-126 -349c0,-19 -5,-36 -16,-49 -11,-14 -30,-23 -56,-29 -8,-2 -17,-3 -27,-4 -10,-1 -24,-1 -40,-1l-71 0 0 167 82 0c22,0 41,-2 57,-6 16,-5 29,-10 40,-18 11,-7 19,-16 24,-27 5,-10 7,-21 7,-33z"/>
  <path id="6" class="fil1" d="M4814 1092c0,5 0,9 -1,12 -1,4 -2,7 -3,9 -2,2 -4,4 -6,5 -2,1 -5,2 -7,2l-302 0c-8,0 -15,-2 -22,-6 -6,-4 -10,-11 -10,-21l0 -442c0,-10 4,-17 10,-21 7,-4 14,-6 22,-6l298 0c3,0 5,0 7,1 3,1 4,3 6,5 1,3 2,6 3,9 1,3 1,8 1,13 0,4 0,8 -1,12 -1,3 -2,6 -3,8 -2,3 -4,4 -6,5 -2,1 -4,2 -7,2l-246 0 0 155 211 0c3,0 5,1 8,2 2,1 3,2 5,5 1,2 2,4 3,8 1,4 1,8 1,13 0,4 0,8 -1,12 -1,3 -2,6 -3,8 -2,2 -3,3 -5,4 -3,1 -5,1 -8,1l-211 0 0 178 250 0c2,0 5,0 7,1 2,1 4,3 6,5 1,2 2,5 3,8 1,4 1,8 1,13z"/>
  <path id="7" class="fil1" d="M5373 864c0,43 -7,81 -21,113 -14,32 -34,59 -61,80 -27,21 -60,36 -99,47 -39,10 -85,16 -139,16l-133 0c-7,0 -15,-2 -21,-6 -7,-4 -10,-11 -10,-21l0 -442c0,-10 3,-17 10,-21 6,-4 14,-6 21,-6l142 0c55,0 101,5 139,16 37,12 69,28 94,48 26,21 45,46 58,76 13,30 20,63 20,100zm-88 3c0,-27 -4,-52 -12,-75 -9,-23 -22,-43 -40,-60 -18,-17 -41,-30 -69,-39 -27,-10 -63,-14 -106,-14l-85 0 0 386 86 0c40,0 74,-4 102,-12 27,-8 50,-20 69,-37 18,-16 32,-36 41,-61 10,-25 14,-54 14,-88z"/>
  <path id="8" class="fil1" d="M5913 692c0,4 -1,9 -1,12 -1,4 -2,7 -3,10 -1,2 -3,4 -5,5 -2,1 -4,1 -6,1 -4,0 -11,-2 -20,-7 -9,-5 -21,-10 -36,-16 -16,-6 -34,-12 -55,-16 -21,-5 -47,-8 -76,-8 -34,0 -65,5 -93,15 -28,10 -51,24 -70,42 -19,17 -34,38 -44,62 -10,25 -15,51 -15,79 0,32 5,60 16,85 12,24 27,45 47,62 20,17 43,30 71,38 27,9 57,13 90,13 20,0 39,-1 59,-5 20,-4 39,-10 56,-17l0 -145 -146 0c-5,0 -9,-2 -12,-6 -3,-5 -4,-11 -4,-21 0,-4 0,-9 1,-12 0,-3 1,-6 3,-9 1,-2 3,-3 5,-4 2,-1 4,-2 7,-2l200 0c4,0 7,1 11,2 3,1 7,2 9,4 3,2 6,5 7,9 2,3 3,7 3,12l0 189c0,7 -2,13 -5,17 -3,5 -9,10 -18,13 -9,4 -22,8 -37,12 -15,5 -30,8 -46,12 -16,3 -32,5 -48,6 -16,2 -32,3 -48,3 -49,0 -92,-6 -131,-18 -38,-12 -70,-29 -97,-51 -26,-22 -46,-48 -60,-79 -14,-31 -21,-65 -21,-103 0,-39 7,-75 22,-107 16,-32 37,-59 64,-81 28,-23 60,-40 99,-53 38,-12 81,-18 127,-18 25,0 47,1 68,5 21,3 40,7 56,11 17,5 30,10 42,15 11,5 18,10 23,13 4,3 7,7 8,12 2,4 3,10 3,19z"/>
  <path id="9" class="fil1" d="M6359 1092c0,5 -1,9 -1,12 -1,4 -2,7 -4,9 -1,2 -3,4 -5,5 -2,1 -5,2 -7,2l-303 0c-7,0 -14,-2 -21,-6 -6,-4 -10,-11 -10,-21l0 -442c0,-10 4,-17 10,-21 7,-4 14,-6 21,-6l299 0c3,0 5,0 7,1 2,1 4,3 5,5 2,3 3,6 4,9 0,3 1,8 1,13 0,4 -1,8 -1,12 -1,3 -2,6 -4,8 -1,3 -3,4 -5,5 -2,1 -4,2 -7,2l-246 0 0 155 211 0c3,0 5,1 7,2 2,1 4,2 6,5 1,2 2,4 3,8 1,4 1,8 1,13 0,4 0,8 -1,12 -1,3 -2,6 -3,8 -2,2 -4,3 -6,4 -2,1 -4,1 -7,1l-211 0 0 178 250 0c2,0 5,0 7,1 2,1 4,3 5,5 2,2 3,5 4,8 0,4 1,8 1,13z"/>
  <path class="fil1" d="M2023 1582c0,1 0,2 -1,3 -1,1 -2,2 -4,2 -2,1 -4,1 -8,1 -3,1 -7,1 -11,1 -5,0 -9,0 -12,-1 -3,0 -6,0 -8,-1 -2,0 -3,-1 -4,-2 -1,-1 -1,-2 -1,-3l0 -266c0,-1 0,-2 1,-3 1,-1 3,-1 5,-2 2,0 4,-1 7,-1 3,-1 7,-1 12,-1 4,0 8,0 11,1 4,0 6,1 8,1 2,1 3,1 4,2 1,1 1,2 1,3l0 266z"/>
  <path id="1" class="fil1" d="M2457 1326c0,3 0,5 -1,7 0,2 -1,4 -1,5 -1,1 -2,2 -4,3 -1,0 -2,1 -4,1l-103 0 0 240c0,1 0,2 -1,3 -1,1 -2,2 -4,2 -2,1 -5,1 -8,1 -3,1 -7,1 -12,1 -4,0 -8,0 -11,-1 -3,0 -6,0 -8,-1 -2,0 -3,-1 -4,-2 -1,-1 -1,-2 -1,-3l0 -240 -103 0c-2,0 -3,-1 -4,-1 -2,-1 -3,-2 -4,-3 0,-1 -1,-3 -1,-5 -1,-2 -1,-4 -1,-7 0,-2 0,-5 1,-7 0,-2 1,-3 1,-5 1,-1 2,-2 4,-3 1,0 2,0 4,0l255 0c2,0 3,0 4,0 2,1 3,2 4,3 0,2 1,3 1,5 1,2 1,5 1,7z"/>
  <path id="2" class="fil1" d="M2972 1510c0,13 -4,24 -10,35 -6,10 -15,18 -26,25 -12,7 -25,13 -40,16 -16,4 -32,6 -50,6 -12,0 -23,-1 -34,-3 -11,-1 -20,-3 -28,-6 -8,-2 -15,-4 -21,-7 -6,-2 -9,-4 -12,-6 -2,-2 -3,-4 -4,-6 -2,-3 -2,-7 -2,-11 0,-3 0,-6 1,-8 0,-2 1,-4 1,-5 1,-1 2,-2 3,-2 1,-1 3,-1 4,-1 3,0 6,1 11,3 5,3 11,5 19,8 8,3 17,6 27,8 11,3 24,4 38,4 10,0 20,-1 29,-3 9,-2 16,-5 23,-9 6,-4 11,-9 14,-15 4,-5 5,-12 5,-19 0,-8 -2,-15 -7,-20 -5,-6 -11,-11 -19,-15 -7,-4 -16,-8 -26,-11 -10,-4 -20,-7 -31,-11 -10,-4 -20,-8 -30,-12 -10,-5 -19,-10 -27,-16 -7,-6 -14,-13 -18,-21 -5,-8 -8,-18 -8,-29 0,-11 3,-22 9,-31 5,-9 13,-16 23,-22 10,-7 22,-11 35,-15 14,-3 29,-4 45,-4 8,0 16,0 25,1 8,1 16,3 23,5 7,1 14,3 19,6 6,2 10,4 12,5 1,1 3,2 3,3 1,1 1,2 1,3 1,1 1,3 1,5 1,1 1,3 1,6 0,3 0,5 -1,7 0,2 -1,4 -1,5 -1,1 -1,2 -2,3 -2,1 -3,1 -4,1 -2,0 -5,-1 -10,-3 -4,-2 -10,-4 -16,-7 -7,-2 -14,-4 -23,-7 -9,-2 -19,-3 -30,-3 -10,0 -19,1 -27,3 -7,3 -13,5 -18,9 -5,3 -9,7 -12,12 -2,5 -3,10 -3,15 0,7 2,14 7,20 5,5 11,10 19,14 8,5 17,9 27,12 10,4 20,7 31,11 10,4 20,8 30,12 10,4 19,9 27,15 8,6 14,13 19,21 5,8 8,18 8,29z"/>
  <path id="3" class="fil1" d="M3455 1446c0,22 -4,43 -11,60 -7,18 -17,34 -31,46 -14,13 -32,23 -53,29 -21,7 -45,11 -73,11 -28,0 -52,-3 -72,-10 -20,-6 -37,-15 -50,-27 -13,-12 -23,-26 -30,-44 -6,-17 -9,-38 -9,-60 0,-22 3,-42 10,-60 7,-18 18,-33 32,-45 14,-13 31,-22 52,-29 21,-7 46,-10 74,-10 27,0 51,3 71,9 20,6 37,15 50,27 13,11 23,26 30,43 6,18 10,38 10,60zm-52 2c0,-15 -2,-30 -6,-43 -3,-14 -9,-25 -18,-35 -9,-10 -20,-18 -35,-23 -14,-6 -32,-9 -53,-9 -21,0 -39,3 -53,9 -15,6 -26,14 -35,24 -9,10 -16,22 -20,35 -4,13 -6,27 -6,42 0,16 2,31 6,45 3,14 9,25 18,35 8,10 20,18 34,23 14,6 32,9 54,9 21,0 39,-3 54,-9 15,-6 26,-14 35,-25 9,-10 15,-22 19,-35 4,-13 6,-28 6,-43z"/>
  <path id="4" class="fil1" d="M3829 1572c0,2 0,5 -1,7 0,2 -1,3 -2,5 -1,1 -2,2 -3,3 -1,0 -2,1 -4,1l-163 0c-4,0 -9,-1 -13,-4 -3,-2 -5,-6 -5,-11l0 -257c0,-1 0,-2 1,-3 1,-1 2,-1 4,-2 2,0 4,-1 7,-1 4,-1 8,-1 12,-1 5,0 9,0 12,1 3,0 6,1 7,1 2,1 4,1 4,2 1,1 2,2 2,3l0 240 132 0c2,0 3,0 4,1 1,0 2,1 3,2 1,2 2,3 2,5 1,2 1,5 1,8z"/>
  <path id="5" class="fil1" d="M4252 1485c0,17 -3,32 -10,45 -6,13 -16,25 -28,34 -12,9 -27,16 -44,21 -17,4 -37,7 -59,7 -21,0 -39,-3 -56,-7 -17,-4 -31,-11 -43,-20 -12,-8 -21,-19 -27,-32 -7,-13 -10,-28 -10,-45l0 -172c0,-1 0,-2 1,-3 1,-1 2,-1 4,-2 2,0 4,-1 7,-1 4,-1 7,-1 13,-1 4,0 8,0 11,1 3,0 6,1 8,1 2,1 3,1 4,2 0,1 1,2 1,3l0 167c0,13 2,25 6,34 4,10 10,18 18,24 8,6 17,11 28,14 11,3 24,5 38,5 14,0 26,-1 37,-5 12,-3 21,-8 29,-14 7,-6 13,-14 17,-23 4,-9 6,-20 6,-33l0 -169c0,-1 1,-2 1,-3 1,-1 2,-1 4,-2 2,0 5,-1 8,-1 3,-1 7,-1 12,-1 4,0 8,0 11,1 4,0 6,1 8,1 2,1 3,1 4,2 1,1 1,2 1,3l0 169z"/>
  <path id="6" class="fil1" d="M4685 1326c0,3 0,5 0,7 -1,2 -1,4 -2,5 -1,1 -2,2 -3,3 -1,0 -3,1 -4,1l-104 0 0 240c0,1 0,2 -1,3 -1,1 -2,2 -4,2 -2,1 -4,1 -7,1 -4,1 -7,1 -12,1 -5,0 -9,0 -12,-1 -3,0 -6,0 -7,-1 -2,0 -4,-1 -4,-2 -1,-1 -2,-2 -2,-3l0 -240 -103 0c-1,0 -3,-1 -4,-1 -1,-1 -2,-2 -3,-3 -1,-1 -1,-3 -2,-5 0,-2 -1,-4 -1,-7 0,-2 1,-5 1,-7 1,-2 1,-3 2,-5 1,-1 2,-2 3,-3 1,0 3,0 4,0l256 0c1,0 3,0 4,0 1,1 2,2 3,3 1,2 1,3 2,5 0,2 0,5 0,7z"/>
  <path id="7" class="fil1" d="M4893 1582c0,1 -1,2 -1,3 -1,1 -2,2 -4,2 -2,1 -5,1 -8,1 -3,1 -7,1 -12,1 -4,0 -8,0 -11,-1 -4,0 -6,0 -8,-1 -2,0 -3,-1 -4,-2 -1,-1 -1,-2 -1,-3l0 -266c0,-1 0,-2 1,-3 1,-1 2,-1 4,-2 2,0 5,-1 8,-1 3,-1 7,-1 11,-1 5,0 9,0 12,1 3,0 6,1 8,1 2,1 3,1 4,2 0,1 1,2 1,3l0 266z"/>
  <path id="8" class="fil1" d="M5404 1446c0,22 -3,43 -10,60 -7,18 -18,34 -32,46 -14,13 -31,23 -52,29 -21,7 -46,11 -74,11 -28,0 -52,-3 -72,-10 -20,-6 -37,-15 -50,-27 -13,-12 -23,-26 -29,-44 -7,-17 -10,-38 -10,-60 0,-22 4,-42 11,-60 7,-18 17,-33 31,-45 14,-13 32,-22 53,-29 21,-7 45,-10 74,-10 27,0 50,3 70,9 20,6 37,15 51,27 13,11 23,26 29,43 7,18 10,38 10,60zm-52 2c0,-15 -1,-30 -5,-43 -4,-14 -10,-25 -19,-35 -8,-10 -20,-18 -34,-23 -15,-6 -32,-9 -53,-9 -22,0 -40,3 -54,9 -14,6 -26,14 -35,24 -9,10 -15,22 -19,35 -4,13 -6,27 -6,42 0,16 2,31 5,45 4,14 10,25 18,35 9,10 20,18 35,23 14,6 32,9 53,9 22,0 40,-3 54,-9 15,-6 27,-14 36,-25 9,-10 15,-22 19,-35 4,-13 5,-28 5,-43z"/>
  <path id="9" class="fil1" d="M5866 1572c0,3 -1,6 -2,8 -2,2 -3,3 -5,4 -2,2 -5,3 -7,3 -3,1 -5,1 -8,1l-16 0c-5,0 -10,0 -13,-1 -4,-1 -8,-2 -11,-4 -4,-2 -7,-5 -11,-9 -3,-3 -7,-8 -11,-13l-112 -158c-6,-8 -12,-17 -18,-25 -6,-9 -11,-18 -17,-26l0 0c0,10 1,20 1,31 0,11 0,21 0,32l0 167c0,1 0,2 -1,3 -1,1 -2,2 -4,2 -2,1 -5,1 -8,1 -3,1 -7,1 -11,1 -5,0 -9,0 -12,-1 -4,0 -6,0 -8,-1 -2,0 -3,-1 -4,-2 0,-1 -1,-2 -1,-3l0 -256c0,-5 2,-9 7,-12 4,-2 9,-3 14,-3l24 0c5,0 10,0 14,1 4,0 7,2 10,3 3,2 6,4 9,7 3,3 6,7 9,11l86 122c6,7 11,14 16,21 5,8 10,14 14,21 5,7 9,14 14,21 4,6 9,13 13,20l1 0c-1,-12 -1,-23 -1,-36 0,-12 0,-24 0,-35l0 -150c0,-1 0,-2 1,-3 1,-1 2,-1 4,-2 2,-1 4,-1 7,-1 4,-1 8,-1 13,-1 4,0 8,0 11,1 3,0 6,0 7,1 2,1 4,1 4,2 1,1 2,2 2,3l0 255z"/>
  <path id="10" class="fil1" d="M6267 1510c0,13 -4,24 -10,35 -6,10 -15,18 -26,25 -12,7 -25,13 -40,16 -16,4 -32,6 -50,6 -12,0 -23,-1 -34,-3 -10,-1 -20,-3 -28,-6 -8,-2 -15,-4 -21,-7 -5,-2 -9,-4 -12,-6 -2,-2 -3,-4 -4,-6 -2,-3 -2,-7 -2,-11 0,-3 0,-6 1,-8 0,-2 1,-4 1,-5 1,-1 2,-2 3,-2 1,-1 3,-1 4,-1 3,0 7,1 11,3 5,3 11,5 19,8 8,3 17,6 28,8 10,3 23,4 37,4 10,0 20,-1 29,-3 9,-2 16,-5 23,-9 6,-4 11,-9 14,-15 4,-5 5,-12 5,-19 0,-8 -2,-15 -7,-20 -4,-6 -11,-11 -18,-15 -8,-4 -17,-8 -27,-11 -10,-4 -20,-7 -31,-11 -10,-4 -20,-8 -30,-12 -10,-5 -19,-10 -27,-16 -7,-6 -14,-13 -18,-21 -5,-8 -8,-18 -8,-29 0,-11 3,-22 9,-31 5,-9 13,-16 23,-22 10,-7 22,-11 36,-15 13,-3 28,-4 44,-4 8,0 16,0 25,1 8,1 16,3 23,5 7,1 14,3 19,6 6,2 10,4 12,5 1,1 3,2 3,3 1,1 1,2 1,3 1,1 1,3 1,5 1,1 1,3 1,6 0,3 0,5 -1,7 0,2 -1,4 -1,5 -1,1 -1,2 -2,3 -1,1 -3,1 -4,1 -2,0 -5,-1 -10,-3 -4,-2 -10,-4 -16,-7 -7,-2 -14,-4 -23,-7 -9,-2 -19,-3 -30,-3 -10,0 -19,1 -27,3 -7,3 -13,5 -18,9 -5,3 -9,7 -11,12 -3,5 -4,10 -4,15 0,7 2,14 7,20 5,5 11,10 19,14 8,5 17,9 27,12 10,4 20,7 31,11 10,4 20,8 30,12 10,4 19,9 27,15 8,6 14,13 19,21 5,8 8,18 8,29z"/>
 </g>
</svg>
