<?xml version="1.0" encoding="UTF-8"?>
<!DOCTYPE svg PUBLIC "-//W3C//DTD SVG 1.1//EN" "http://www.w3.org/Graphics/SVG/1.1/DTD/svg11.dtd">
<!-- Creator: CorelDRAW X7 -->
<svg xmlns="http://www.w3.org/2000/svg" xml:space="preserve" width="6.58666in" height="2in" version="1.1" style="shape-rendering:geometricPrecision; text-rendering:geometricPrecision; image-rendering:optimizeQuality; fill-rule:evenodd; clip-rule:evenodd"
viewBox="0 0 6587 2000"
 xmlns:xlink="http://www.w3.org/1999/xlink">
 <defs>
  <style type="text/css">
   <![CDATA[
    .fil0 {fill:#FEFEFE}
    .fil1 {fill:#FEFEFE;fill-rule:nonzero}
   ]]>
  </style>
 </defs>
 <g id="Layer_x0020_1">
  <metadata id="CorelCorpID_0Corel-Layer"/>
  <path class="fil0" d="M1741 118l-724 274 200 175c-158,193 -315,385 -473,578 -41,49 -486,624 -510,607 -22,-16 -31,-226 -57,-283 -29,-66 -24,-15 -21,23 5,71 8,143 12,215 3,48 5,95 7,143 5,107 60,20 93,-19 32,-39 66,-77 99,-115 22,-26 44,-52 66,-78 103,-119 206,-239 309,-358 41,-48 82,-95 123,-143 160,-186 320,-372 480,-558 47,-55 93,-109 140,-163 70,-82 140,-163 211,-245 15,-17 30,-35 45,-53 -45,53 -91,106 -137,159 -187,218 -374,435 -561,652 -23,27 -46,55 -70,82 -23,27 -46,54 -70,81 -93,109 -187,218 -280,326 -136,158 -272,317 -408,475 18,-21 35,-42 53,-63 24,-27 47,-54 71,-82 257,-298 514,-597 771,-896 139,-162 278,-323 417,-485 72,-83 143,-166 214,-249z"/>
  <polygon class="fil1" points="1087,1007 1602,1007 1602,1116 1087,1116 1087,1434 1659,1434 1659,1543 963,1543 963,1150 "/>
  <path class="fil0" d="M1022 664c-44,-95 -124,-145 -229,-164 -255,-49 -427,15 -488,232 -14,147 60,239 207,287 156,41 265,62 346,104 107,55 117,134 62,224 -78,96 -252,109 -393,40 -121,-59 -144,-158 -159,-282 -35,-9 -97,-114 -136,-223l32 320c30,175 107,283 235,320 229,65 406,27 530,-112 81,-169 76,-309 -82,-400 -228,-120 -474,-73 -511,-219 -19,-156 100,-210 341,-174 73,18 120,65 139,145l106 -98z"/>
  <path class="fil0" d="M669 1447c68,-68 136,-137 204,-205 25,-25 51,-50 76,-76 158,-158 316,-317 475,-475l224 162 90 -728c-23,27 -46,54 -70,82 -22,25 -44,51 -66,77 -91,106 -183,212 -274,318 -22,26 -44,52 -66,77 -24,28 -47,55 -70,82 -47,54 -94,109 -141,163 -23,27 -46,54 -70,81 -249,290 -499,578 -747,869 -69,80 12,-3 32,-23 25,-25 50,-51 76,-76 25,-25 50,-51 75,-76 26,-25 51,-51 76,-76 24,-23 47,-47 70,-70l106 -106z"/>
  <path class="fil0" d="M626 1421l-106 107c0,0 0,0 0,0l106 -107z"/>
  <path class="fil0" d="M626 1421l-106 107c25,-25 49,-49 73,-74l33 -33z"/>
  <path class="fil1" d="M2217 995c0,29 -5,55 -16,77 -11,23 -26,42 -46,58 -19,15 -42,27 -68,35 -26,8 -54,12 -85,12 -21,0 -41,-2 -59,-5 -18,-4 -34,-8 -48,-13 -14,-5 -26,-11 -36,-16 -9,-6 -16,-10 -20,-14 -4,-4 -6,-9 -8,-15 -2,-5 -3,-13 -3,-23 0,-7 1,-13 1,-17 1,-5 2,-9 3,-11 1,-3 3,-5 5,-6 2,-1 4,-2 7,-2 4,0 11,3 19,8 8,6 19,11 32,18 13,6 29,12 47,17 19,6 40,9 64,9 18,0 35,-3 50,-7 15,-5 28,-12 39,-21 11,-8 20,-19 25,-32 6,-12 9,-27 9,-43 0,-17 -4,-32 -12,-44 -8,-13 -19,-23 -32,-33 -14,-9 -29,-18 -46,-25 -17,-8 -34,-16 -52,-24 -18,-8 -36,-17 -52,-27 -17,-10 -33,-21 -46,-35 -13,-13 -24,-28 -32,-46 -9,-18 -13,-40 -13,-65 0,-26 5,-48 15,-68 9,-20 23,-37 40,-51 17,-14 37,-24 61,-31 23,-7 49,-11 76,-11 14,0 28,1 42,4 14,2 28,5 40,9 13,4 24,9 34,14 9,5 16,9 19,12 3,3 5,5 6,7 1,1 2,4 2,6 1,3 1,6 2,10 0,4 0,9 0,15 0,6 0,11 0,15 -1,5 -2,8 -3,11 -1,3 -2,6 -4,7 -2,1 -4,2 -6,2 -4,0 -9,-2 -17,-7 -7,-4 -17,-9 -28,-15 -11,-5 -24,-10 -39,-15 -15,-4 -32,-7 -51,-7 -18,0 -33,3 -46,7 -13,5 -24,11 -32,18 -9,8 -15,17 -19,27 -5,11 -7,22 -7,34 0,17 4,31 12,44 9,12 19,23 33,33 14,9 29,18 46,26 17,8 35,16 53,24 18,8 36,17 53,26 17,10 32,21 46,34 14,14 24,29 33,47 8,18 12,39 12,63z"/>
  <path id="1" class="fil1" d="M2360 1156c0,2 -1,5 -2,6 -2,2 -4,4 -7,5 -3,1 -8,2 -13,3 -5,1 -12,1 -20,1 -8,0 -15,0 -20,-1 -6,-1 -10,-2 -13,-3 -4,-1 -6,-3 -7,-5 -2,-1 -2,-4 -2,-6l0 -591c0,-2 0,-5 2,-6 1,-2 4,-4 7,-5 4,-1 8,-2 13,-3 6,-1 12,-1 20,-1 8,0 15,0 20,1 5,1 10,2 13,3 3,1 5,3 7,5 1,1 2,4 2,6l0 591z"/>
  <path id="2" class="fil1" d="M2795 1132c0,7 -1,12 -1,16 -1,4 -2,8 -3,11 -2,3 -4,5 -6,7 -2,1 -4,2 -7,2l-280 0c-7,0 -15,-2 -21,-7 -7,-5 -10,-14 -10,-26l0 -570c0,-2 0,-5 2,-6 1,-2 3,-4 7,-5 3,-1 7,-2 13,-3 5,-1 12,-1 20,-1 8,0 15,0 20,1 5,1 10,2 13,3 3,1 5,3 7,5 1,1 2,4 2,6l0 532 227 0c3,0 5,1 7,2 2,2 4,4 6,6 1,3 2,7 3,11 0,4 1,10 1,16z"/>
  <path id="3" class="fil1" d="M3010 1154c-2,3 -4,6 -6,8 -2,3 -5,4 -9,5 -4,2 -10,3 -16,3 -6,1 -14,1 -24,1 -7,0 -14,0 -19,0 -5,0 -10,-1 -14,-2 -4,0 -7,-1 -10,-2 -3,0 -5,-1 -7,-3 -2,-1 -3,-3 -4,-4 -2,-2 -3,-4 -4,-7l-206 -571c-3,-7 -4,-13 -4,-17 0,-4 1,-7 4,-10 3,-2 7,-3 14,-4 6,-1 15,-1 26,-1 9,0 17,0 22,1 5,0 10,1 13,2 2,2 5,3 6,5 2,2 3,5 4,8l181 518 1 0 177 -517c0,-3 2,-6 3,-8 1,-3 4,-4 7,-6 3,-1 8,-2 13,-2 6,-1 14,-1 24,-1 10,0 18,0 24,1 6,1 10,2 12,5 2,2 3,5 2,9 0,5 -2,10 -4,17l-206 572z"/>
  <path id="4" class="fil1" d="M3613 1134c0,6 -1,11 -1,15 -1,4 -2,8 -4,11 -1,3 -3,5 -5,6 -3,1 -5,2 -8,2l-303 0c-8,0 -15,-2 -21,-7 -7,-5 -10,-14 -10,-26l0 -549c0,-12 3,-21 10,-26 6,-5 13,-7 21,-7l300 0c3,0 5,1 7,2 2,1 4,3 5,6 1,3 3,7 3,11 1,4 2,9 2,16 0,6 -1,10 -2,15 0,4 -2,8 -3,10 -1,3 -3,5 -5,6 -2,1 -4,2 -7,2l-247 0 0 193 212 0c3,0 5,0 7,2 2,1 4,3 5,6 2,2 3,6 4,10 0,5 1,10 1,16 0,6 -1,11 -1,15 -1,4 -2,7 -4,10 -1,2 -3,4 -5,5 -2,1 -4,2 -7,2l-212 0 0 220 250 0c3,0 5,1 8,2 2,1 4,3 5,6 2,2 3,6 4,10 0,4 1,10 1,16z"/>
  <path id="5" class="fil1" d="M4109 1156c0,2 0,4 -1,6 -1,2 -3,4 -6,5 -4,1 -8,2 -14,3 -6,1 -14,1 -23,1 -9,0 -16,0 -21,-1 -6,-1 -10,-2 -13,-3 -3,-2 -6,-4 -8,-6 -2,-3 -3,-6 -4,-10l-58 -145c-7,-16 -14,-31 -22,-45 -7,-14 -16,-26 -26,-36 -10,-10 -22,-17 -36,-23 -13,-6 -30,-8 -49,-8l-56 0 0 262c0,2 -1,4 -2,6 -2,2 -4,4 -7,5 -3,1 -7,2 -13,3 -5,1 -12,1 -20,1 -8,0 -15,0 -20,-1 -6,-1 -10,-2 -13,-3 -4,-1 -6,-3 -7,-5 -1,-1 -2,-4 -2,-6l0 -570c0,-12 3,-21 10,-26 7,-5 14,-7 21,-7l135 0c16,0 29,0 39,1 11,1 20,2 29,3 24,4 46,10 65,19 18,9 34,20 47,34 13,14 22,29 28,47 7,17 10,37 10,58 0,20 -3,39 -9,55 -5,17 -14,31 -24,43 -11,13 -24,24 -39,33 -15,9 -32,17 -50,23 10,5 20,10 28,17 9,7 16,15 24,25 7,9 14,20 21,33 6,12 13,26 19,41l57 136c4,11 7,19 8,24 2,4 2,8 2,11zm-126 -433c0,-24 -6,-44 -17,-61 -11,-16 -29,-28 -55,-36 -9,-2 -18,-3 -28,-4 -10,-1 -24,-2 -40,-2l-71 0 0 207 82 0c22,0 41,-2 57,-7 16,-6 30,-13 41,-22 10,-10 18,-21 23,-33 5,-13 8,-27 8,-42z"/>
  <path id="6" class="fil1" d="M4809 1134c0,6 0,11 -1,15 -1,4 -2,8 -3,11 -2,3 -4,5 -6,6 -2,1 -5,2 -7,2l-304 0c-7,0 -14,-2 -21,-7 -7,-5 -10,-14 -10,-26l0 -549c0,-12 3,-21 10,-26 7,-5 14,-7 21,-7l300 0c3,0 5,1 7,2 3,1 4,3 6,6 1,3 2,7 3,11 1,4 1,9 1,16 0,6 0,10 -1,15 -1,4 -2,8 -3,10 -2,3 -4,5 -6,6 -2,1 -4,2 -7,2l-247 0 0 193 212 0c3,0 5,0 7,2 2,1 4,3 6,6 1,2 2,6 3,10 1,5 1,10 1,16 0,6 0,11 -1,15 -1,4 -2,7 -3,10 -2,2 -4,4 -6,5 -2,1 -4,2 -7,2l-212 0 0 220 251 0c2,0 5,1 7,2 2,1 4,3 6,6 1,2 2,6 3,10 1,4 1,10 1,16z"/>
  <path id="7" class="fil1" d="M5370 851c0,54 -7,100 -21,140 -14,40 -34,73 -61,99 -27,26 -60,46 -99,59 -39,12 -86,19 -140,19l-134 0c-7,0 -14,-2 -21,-7 -7,-5 -10,-14 -10,-26l0 -549c0,-12 3,-21 10,-26 7,-5 14,-7 21,-7l143 0c55,0 101,7 139,21 38,13 70,33 95,59 26,26 45,57 58,94 13,37 20,78 20,124zm-88 4c0,-33 -4,-64 -13,-93 -8,-29 -21,-53 -39,-74 -19,-21 -41,-38 -69,-49 -28,-12 -64,-18 -107,-18l-86 0 0 479 87 0c40,0 74,-5 102,-15 28,-10 51,-25 69,-45 19,-20 33,-46 42,-76 9,-31 14,-67 14,-109z"/>
  <path id="8" class="fil1" d="M5912 637c0,6 0,11 -1,16 0,4 -1,8 -3,11 -1,3 -3,5 -5,7 -1,1 -4,2 -6,2 -4,0 -10,-3 -19,-9 -10,-6 -22,-13 -37,-21 -15,-7 -34,-14 -55,-20 -21,-6 -47,-9 -76,-9 -35,0 -66,6 -94,19 -27,12 -51,29 -70,51 -19,22 -34,48 -44,78 -11,30 -16,63 -16,98 0,40 6,74 17,105 11,30 27,56 47,77 20,21 43,37 71,47 28,11 58,17 91,17 19,0 39,-3 59,-7 20,-5 39,-12 56,-21l0 -180 -146 0c-6,0 -10,-2 -13,-8 -2,-5 -4,-13 -4,-25 0,-6 1,-11 1,-15 1,-5 2,-8 3,-11 2,-3 4,-4 6,-6 1,-1 4,-2 7,-2l200 0c4,0 8,1 11,2 4,2 7,3 10,6 3,3 5,6 7,10 1,5 2,10 2,16l0 234c0,8 -1,16 -4,22 -3,6 -9,11 -19,16 -9,4 -21,9 -36,14 -15,6 -31,10 -47,14 -16,4 -32,7 -48,9 -16,2 -33,3 -48,3 -49,0 -93,-8 -131,-22 -39,-15 -71,-36 -98,-63 -26,-28 -47,-60 -61,-98 -14,-38 -21,-81 -21,-128 0,-49 8,-93 23,-133 15,-39 36,-73 64,-101 27,-28 60,-49 99,-65 39,-15 81,-23 128,-23 24,0 47,2 68,6 21,5 40,9 56,15 17,6 31,12 42,18 11,7 19,12 23,16 4,4 7,9 9,15 1,5 2,13 2,23z"/>
  <path id="9" class="fil1" d="M6360 1134c0,6 0,11 -1,15 -1,4 -2,8 -3,11 -2,3 -4,5 -6,6 -2,1 -4,2 -7,2l-304 0c-7,0 -14,-2 -21,-7 -7,-5 -10,-14 -10,-26l0 -549c0,-12 3,-21 10,-26 7,-5 14,-7 21,-7l300 0c3,0 5,1 8,2 2,1 3,3 5,6 1,3 2,7 3,11 1,4 1,9 1,16 0,6 0,10 -1,15 -1,4 -2,8 -3,10 -2,3 -3,5 -5,6 -3,1 -5,2 -8,2l-247 0 0 193 212 0c3,0 5,0 8,2 2,1 3,3 5,6 1,2 2,6 3,10 1,5 1,10 1,16 0,6 0,11 -1,15 -1,4 -2,7 -3,10 -2,2 -3,4 -5,5 -3,1 -5,2 -8,2l-212 0 0 220 251 0c3,0 5,1 7,2 2,1 4,3 6,6 1,2 2,6 3,10 1,4 1,10 1,16z"/>
  <path class="fil1" d="M2023 1583c0,1 0,2 -1,3 -1,1 -2,1 -4,2 -2,0 -4,1 -8,1 -3,0 -7,0 -11,0 -5,0 -9,0 -12,0 -3,0 -6,-1 -8,-1 -2,-1 -3,-1 -4,-2 -1,-1 -1,-2 -1,-3l0 -233c0,-1 0,-2 1,-3 1,0 3,-1 5,-1 2,-1 4,-1 7,-2 3,0 7,0 12,0 4,0 8,0 11,0 4,1 6,1 8,2 2,0 3,1 4,1 1,1 1,2 1,3l0 233z"/>
  <path id="1" class="fil1" d="M2457 1359c0,2 0,4 -1,6 0,2 -1,3 -1,4 -1,1 -2,2 -4,3 -1,0 -2,0 -4,0l-103 0 0 211c0,1 0,2 -1,3 -1,1 -2,1 -4,2 -2,0 -5,1 -8,1 -3,0 -7,0 -12,0 -4,0 -8,0 -11,0 -3,0 -6,-1 -8,-1 -2,-1 -3,-1 -4,-2 -1,-1 -1,-2 -1,-3l0 -211 -103 0c-2,0 -3,0 -4,0 -2,-1 -3,-2 -3,-3 -1,-1 -2,-2 -2,-4 -1,-2 -1,-4 -1,-6 0,-2 0,-5 1,-6 0,-2 1,-4 2,-5 0,-1 1,-2 3,-2 1,-1 2,-1 4,-1l255 0c2,0 3,0 4,1 2,0 3,1 4,2 0,1 1,3 1,5 1,1 1,4 1,6z"/>
  <path id="2" class="fil1" d="M2972 1520c0,11 -4,21 -10,30 -6,9 -15,17 -26,23 -12,6 -25,11 -40,14 -16,3 -32,5 -50,5 -12,0 -23,-1 -34,-2 -11,-2 -20,-4 -28,-6 -8,-2 -15,-4 -21,-6 -6,-2 -9,-4 -12,-5 -2,-2 -3,-4 -4,-6 -2,-2 -2,-5 -2,-9 0,-3 0,-5 1,-7 0,-2 1,-3 1,-4 1,-2 2,-2 3,-3 1,0 3,0 4,0 3,0 7,1 11,3 5,2 11,4 19,7 8,2 17,4 27,7 11,2 24,3 38,3 10,0 20,-1 29,-3 9,-2 16,-4 23,-8 6,-3 11,-7 14,-12 4,-5 5,-11 5,-18 0,-6 -2,-12 -7,-17 -5,-5 -11,-9 -18,-13 -8,-4 -17,-7 -27,-10 -10,-3 -20,-6 -31,-10 -10,-3 -20,-6 -30,-10 -10,-4 -19,-9 -27,-14 -7,-5 -14,-11 -18,-18 -5,-7 -8,-16 -8,-26 0,-10 3,-19 9,-27 5,-8 13,-14 23,-20 10,-5 22,-9 35,-12 14,-3 29,-4 45,-4 8,0 16,0 25,1 8,1 16,2 23,4 7,1 14,3 19,5 6,2 10,4 12,5 1,1 3,2 3,3 1,0 1,1 1,2 1,1 1,3 1,4 1,2 1,4 1,6 0,2 0,4 -1,6 0,2 -1,3 -1,4 -1,2 -1,2 -2,3 -2,1 -3,1 -4,1 -2,0 -5,-1 -10,-3 -4,-2 -10,-3 -16,-6 -7,-2 -14,-4 -23,-6 -9,-2 -19,-2 -30,-2 -10,0 -19,0 -27,2 -7,2 -13,5 -18,8 -5,3 -9,6 -12,10 -2,4 -3,9 -3,13 0,7 2,13 7,18 5,5 11,9 19,13 8,3 17,7 27,10 10,3 20,6 31,9 10,4 20,7 30,11 10,4 19,8 27,14 8,5 14,11 19,18 5,7 8,15 8,25z"/>
  <path id="3" class="fil1" d="M3455 1464c0,19 -4,37 -11,53 -7,16 -17,29 -31,40 -14,11 -32,20 -53,26 -21,6 -45,9 -73,9 -28,0 -52,-3 -72,-9 -20,-5 -37,-13 -50,-23 -13,-11 -23,-24 -30,-39 -6,-15 -9,-33 -9,-53 0,-19 3,-37 10,-52 7,-16 18,-29 32,-40 14,-11 31,-19 52,-25 21,-6 46,-9 74,-9 27,0 51,2 71,8 20,5 37,13 50,23 13,11 23,23 30,39 6,15 10,32 10,52zm-52 2c0,-14 -2,-26 -6,-38 -3,-12 -9,-22 -18,-31 -9,-9 -20,-15 -35,-20 -14,-5 -32,-8 -53,-8 -21,0 -39,3 -53,8 -15,5 -26,12 -35,21 -9,9 -16,19 -20,31 -4,12 -6,24 -6,37 0,14 2,27 6,39 3,12 9,22 18,31 8,9 20,15 34,20 14,5 32,8 54,8 21,0 39,-3 54,-8 15,-6 26,-13 35,-22 9,-9 15,-19 19,-31 4,-11 6,-24 6,-37z"/>
  <path id="4" class="fil1" d="M3829 1574c0,3 0,5 -1,6 0,2 -1,3 -2,5 -1,1 -2,2 -3,2 -1,1 -2,1 -4,1l-163 0c-4,0 -9,-1 -12,-3 -4,-2 -6,-5 -6,-10l0 -225c0,-1 0,-2 1,-3 1,0 2,-1 4,-1 2,-1 4,-1 7,-2 4,0 8,0 12,0 5,0 9,0 12,0 3,1 6,1 7,2 2,0 4,1 4,1 1,1 2,2 2,3l0 210 132 0c2,0 3,0 4,1 1,0 2,1 3,2 1,1 2,3 2,5 1,1 1,3 1,6z"/>
  <path id="5" class="fil1" d="M4252 1498c0,15 -3,28 -10,40 -6,11 -16,21 -28,29 -12,8 -27,14 -44,18 -17,5 -37,7 -59,7 -21,0 -39,-2 -56,-6 -17,-4 -31,-10 -43,-17 -12,-8 -21,-17 -27,-29 -7,-11 -10,-24 -10,-39l0 -151c0,-1 0,-2 1,-3 1,0 2,-1 4,-1 2,-1 4,-1 8,-2 3,0 6,0 12,0 4,0 8,0 11,0 4,1 6,1 8,2 2,0 3,1 4,1 0,1 1,2 1,3l0 147c0,11 2,21 6,29 4,9 10,16 18,21 8,6 17,10 28,13 11,3 24,4 38,4 14,0 26,-1 38,-4 11,-3 20,-7 28,-13 7,-5 13,-12 17,-20 4,-8 6,-18 6,-29l0 -148c0,-1 1,-2 1,-3 1,0 2,-1 4,-1 2,-1 5,-1 8,-2 3,0 7,0 12,0 4,0 8,0 11,0 4,1 6,1 8,2 2,0 3,1 4,1 1,1 1,2 1,3l0 148z"/>
  <path id="6" class="fil1" d="M4685 1359c0,2 0,4 0,6 -1,2 -1,3 -2,4 -1,1 -2,2 -3,3 -1,0 -3,0 -4,0l-104 0 0 211c0,1 0,2 -1,3 -1,1 -2,1 -4,2 -2,0 -4,1 -7,1 -4,0 -7,0 -12,0 -5,0 -9,0 -12,0 -3,0 -6,-1 -7,-1 -2,-1 -4,-1 -4,-2 -1,-1 -2,-2 -2,-3l0 -211 -103 0c-1,0 -3,0 -4,0 -1,-1 -2,-2 -3,-3 -1,-1 -1,-2 -2,-4 0,-2 -1,-4 -1,-6 0,-2 1,-5 1,-6 1,-2 1,-4 2,-5 1,-1 2,-2 3,-2 1,-1 3,-1 4,-1l256 0c1,0 3,0 4,1 1,0 2,1 3,2 1,1 1,3 2,5 0,1 0,4 0,6z"/>
  <path id="7" class="fil1" d="M4893 1583c0,1 -1,2 -1,3 -1,1 -2,1 -4,2 -2,0 -5,1 -8,1 -3,0 -7,0 -12,0 -4,0 -8,0 -11,0 -3,0 -6,-1 -8,-1 -2,-1 -3,-1 -4,-2 -1,-1 -1,-2 -1,-3l0 -233c0,-1 0,-2 1,-3 1,0 2,-1 4,-1 2,-1 5,-1 8,-2 3,0 7,0 11,0 5,0 9,0 12,0 3,1 6,1 8,2 2,0 3,1 4,1 0,1 1,2 1,3l0 233z"/>
  <path id="8" class="fil1" d="M5404 1464c0,19 -3,37 -10,53 -7,16 -18,29 -32,40 -14,11 -31,20 -52,26 -21,6 -46,9 -74,9 -28,0 -51,-3 -72,-9 -20,-5 -37,-13 -50,-23 -13,-11 -23,-24 -29,-39 -7,-15 -10,-33 -10,-53 0,-19 4,-37 11,-52 7,-16 17,-29 31,-40 14,-11 32,-19 53,-25 21,-6 45,-9 74,-9 27,0 50,2 70,8 20,5 37,13 51,23 13,11 23,23 29,39 7,15 10,32 10,52zm-52 2c0,-14 -1,-26 -5,-38 -4,-12 -10,-22 -19,-31 -8,-9 -20,-15 -34,-20 -15,-5 -32,-8 -53,-8 -22,0 -39,3 -54,8 -14,5 -26,12 -35,21 -9,9 -15,19 -19,31 -4,12 -6,24 -6,37 0,14 2,27 5,39 4,12 10,22 19,31 8,9 19,15 34,20 14,5 32,8 53,8 22,0 40,-3 54,-8 15,-6 27,-13 36,-22 9,-9 15,-19 19,-31 4,-11 5,-24 5,-37z"/>
  <path id="9" class="fil1" d="M5866 1575c0,2 -1,4 -2,6 -2,2 -3,3 -5,4 -2,1 -5,2 -7,3 -3,0 -5,1 -8,1l-16 0c-5,0 -10,-1 -13,-2 -4,0 -8,-1 -11,-3 -4,-2 -7,-4 -11,-8 -3,-3 -7,-7 -11,-12l-112 -138c-6,-7 -12,-14 -18,-22 -6,-8 -11,-16 -16,-23l-1 0c0,9 1,18 1,28 0,9 0,18 0,28l0 146c0,1 0,2 -1,3 -1,1 -2,1 -4,2 -2,0 -5,1 -8,1 -3,0 -7,0 -11,0 -5,0 -9,0 -12,0 -4,0 -6,-1 -8,-1 -2,-1 -3,-1 -4,-2 0,-1 -1,-2 -1,-3l0 -224c0,-5 2,-9 7,-11 4,-2 9,-3 14,-3l24 0c5,0 10,0 14,1 4,1 7,2 10,3 3,2 6,4 9,6 3,3 6,6 9,10l86 107c6,6 11,12 16,19 5,6 10,12 14,18 5,6 9,12 14,18 4,5 9,11 13,17l1 0c-1,-10 -1,-20 -1,-31 0,-10 0,-21 0,-31l0 -131c0,-1 0,-2 1,-3 1,0 2,-1 4,-2 2,0 4,-1 7,-1 4,0 8,0 13,0 4,0 8,0 11,0 3,0 6,1 8,1 1,1 3,2 3,2 1,1 2,2 2,3l0 224z"/>
  <path id="10" class="fil1" d="M6267 1520c0,11 -4,21 -10,30 -6,9 -15,17 -26,23 -12,6 -25,11 -40,14 -16,3 -32,5 -50,5 -12,0 -23,-1 -34,-2 -10,-2 -20,-4 -28,-6 -8,-2 -15,-4 -21,-6 -5,-2 -9,-4 -12,-5 -2,-2 -3,-4 -4,-6 -1,-2 -2,-5 -2,-9 0,-3 0,-5 1,-7 0,-2 1,-3 1,-4 1,-2 2,-2 3,-3 1,0 3,0 4,0 3,0 7,1 11,3 5,2 11,4 19,7 8,2 17,4 28,7 10,2 23,3 37,3 10,0 20,-1 29,-3 9,-2 16,-4 23,-8 6,-3 11,-7 14,-12 4,-5 5,-11 5,-18 0,-6 -2,-12 -7,-17 -4,-5 -11,-9 -18,-13 -8,-4 -17,-7 -27,-10 -10,-3 -20,-6 -31,-10 -10,-3 -20,-6 -30,-10 -10,-4 -19,-9 -27,-14 -7,-5 -14,-11 -18,-18 -5,-7 -8,-16 -8,-26 0,-10 3,-19 9,-27 5,-8 13,-14 23,-20 10,-5 22,-9 36,-12 13,-3 28,-4 44,-4 8,0 16,0 25,1 8,1 16,2 23,4 7,1 14,3 19,5 6,2 10,4 12,5 1,1 3,2 3,3 1,0 1,1 2,2 0,1 0,3 0,4 1,2 1,4 1,6 0,2 0,4 -1,6 0,2 0,3 -1,4 -1,2 -1,2 -2,3 -1,1 -3,1 -4,1 -2,0 -5,-1 -10,-3 -4,-2 -10,-3 -16,-6 -7,-2 -14,-4 -23,-6 -9,-2 -19,-2 -30,-2 -10,0 -19,0 -27,2 -7,2 -13,5 -18,8 -5,3 -9,6 -11,10 -3,4 -4,9 -4,13 0,7 2,13 7,18 5,5 11,9 19,13 8,3 17,7 27,10 10,3 20,6 31,9 10,4 20,7 30,11 10,4 19,8 27,14 8,5 15,11 19,18 5,7 8,15 8,25z"/>
 </g>
</svg>
