<?xml version="1.0" encoding="UTF-8"?>
<!DOCTYPE svg PUBLIC "-//W3C//DTD SVG 1.1//EN" "http://www.w3.org/Graphics/SVG/1.1/DTD/svg11.dtd">
<!-- Creator: CorelDRAW X7 -->
<svg xmlns="http://www.w3.org/2000/svg" xml:space="preserve" width="6.58666in" height="2in" version="1.1" style="shape-rendering:geometricPrecision; text-rendering:geometricPrecision; image-rendering:optimizeQuality; fill-rule:evenodd; clip-rule:evenodd"
viewBox="0 0 6587 2000"
 xmlns:xlink="http://www.w3.org/1999/xlink">
 <defs>
  <style type="text/css">
   <![CDATA[
    .fil4 {fill:#BDBFC1}
    .fil6 {fill:#2F83B8;fill-rule:nonzero}
    .fil5 {fill:#2B3E5B;fill-rule:nonzero}
    .fil2 {fill:url(#id0)}
    .fil3 {fill:url(#id1)}
    .fil0 {fill:url(#id2)}
    .fil1 {fill:url(#id3);fill-rule:nonzero}
   ]]>
  </style>
  <linearGradient id="id0" gradientUnits="userSpaceOnUse" x1="738.209" y1="851.094" x2="574.803" y2="1186.31">
   <stop offset="0" style="stop-opacity:1; stop-color:#2F83B8"/>
   <stop offset="0.411765" style="stop-opacity:1; stop-color:#2A638F"/>
   <stop offset="1" style="stop-opacity:1; stop-color:#254365"/>
  </linearGradient>
  <linearGradient id="id1" gradientUnits="userSpaceOnUse" x1="255.969" y1="1686.82" x2="1689.38" y2="346.346">
   <stop offset="0" style="stop-opacity:1; stop-color:#254365"/>
   <stop offset="0.270588" style="stop-opacity:1; stop-color:#2A638E"/>
   <stop offset="1" style="stop-opacity:1; stop-color:#2F83B8"/>
  </linearGradient>
  <linearGradient id="id2" gradientUnits="userSpaceOnUse" x1="1701.49" y1="362.76" x2="193.181" y2="1656.76">
   <stop offset="0" style="stop-opacity:1; stop-color:#254365"/>
   <stop offset="0.211765" style="stop-opacity:1; stop-color:#2A638E"/>
   <stop offset="1" style="stop-opacity:1; stop-color:#2F83B8"/>
  </linearGradient>
  <linearGradient id="id3" gradientUnits="userSpaceOnUse" x1="1209.61" y1="1139.4" x2="1412.27" y2="1410.65">
   <stop offset="0" style="stop-opacity:1; stop-color:#2F83B8"/>
   <stop offset="0.490196" style="stop-opacity:1; stop-color:#2A638F"/>
   <stop offset="1" style="stop-opacity:1; stop-color:#254365"/>
  </linearGradient>
 </defs>
 <g id="Layer_x0020_1">
  <metadata id="CorelCorpID_0Corel-Layer"/>
  <path class="fil0" d="M1741 118l-724 274 200 175c-158,193 -315,385 -473,578 -41,49 -486,624 -510,607 -22,-16 -31,-226 -57,-283 -29,-66 -24,-15 -21,23 5,71 8,143 12,215 3,48 5,95 7,143 5,107 60,20 93,-19 32,-39 66,-77 99,-115 22,-26 44,-52 66,-78 103,-119 206,-239 309,-358 41,-48 82,-95 123,-143 160,-186 320,-372 480,-558 47,-55 93,-109 140,-163 70,-82 140,-163 211,-245 15,-17 30,-35 45,-53 -45,53 -91,106 -137,159 -187,218 -374,435 -561,652 -23,27 -46,55 -70,82 -23,27 -46,54 -70,81 -93,109 -187,218 -280,326 -136,158 -272,317 -408,475 18,-21 35,-42 53,-63 24,-27 47,-54 71,-82 257,-298 514,-597 771,-896 139,-162 278,-323 417,-485 72,-83 143,-166 214,-249z"/>
  <polygon class="fil1" points="1087,1007 1602,1007 1602,1116 1087,1116 1087,1434 1659,1434 1659,1543 963,1543 963,1150 "/>
  <path class="fil2" d="M1022 664c-44,-95 -124,-145 -229,-164 -255,-49 -427,15 -488,232 -14,147 60,239 207,287 156,41 265,62 346,104 107,55 117,134 62,224 -78,96 -252,109 -393,40 -121,-59 -144,-158 -159,-282 -35,-9 -97,-114 -136,-223l32 320c30,175 107,283 235,320 229,65 406,27 530,-112 81,-169 76,-309 -82,-400 -228,-120 -474,-73 -511,-219 -19,-156 100,-210 341,-174 73,18 120,65 139,145l106 -98z"/>
  <path class="fil3" d="M669 1447c68,-68 136,-137 204,-205 25,-25 51,-50 76,-76 158,-158 316,-317 475,-475l224 162 90 -728c-23,27 -46,54 -70,82 -22,25 -44,51 -66,77 -91,106 -183,212 -274,318 -22,26 -44,52 -66,77 -24,28 -47,55 -70,82 -47,54 -94,109 -141,163 -23,27 -46,54 -70,81 -249,290 -499,578 -747,869 -69,80 12,-3 32,-23 25,-25 50,-51 76,-76 25,-25 50,-51 75,-76 26,-25 51,-51 76,-76 24,-23 47,-47 70,-70l106 -106z"/>
  <path class="fil4" d="M626 1421l-106 107c0,0 0,0 0,0l106 -107z"/>
  <path class="fil4" d="M626 1421l-106 107c25,-25 49,-49 73,-74l33 -33z"/>
  <path class="fil5" d="M2217 995c0,29 -5,55 -16,77 -11,23 -26,42 -46,58 -19,15 -42,27 -68,35 -26,8 -54,12 -85,12 -21,0 -41,-2 -59,-5 -18,-4 -34,-8 -48,-13 -14,-5 -26,-11 -36,-16 -9,-6 -16,-10 -20,-14 -4,-4 -6,-9 -8,-15 -2,-5 -3,-13 -3,-23 0,-7 1,-13 1,-17 1,-5 2,-9 3,-11 1,-3 3,-5 5,-6 2,-1 4,-2 7,-2 4,0 11,3 19,8 8,6 19,11 32,18 13,6 29,12 47,17 19,6 40,9 64,9 18,0 35,-3 50,-7 15,-5 28,-12 39,-21 11,-8 20,-19 25,-32 6,-12 9,-27 9,-43 0,-17 -4,-32 -12,-44 -8,-13 -19,-23 -32,-33 -14,-9 -29,-18 -46,-25 -17,-8 -34,-16 -52,-24 -18,-8 -36,-17 -52,-27 -17,-10 -33,-21 -46,-35 -13,-13 -24,-28 -32,-46 -9,-18 -13,-40 -13,-65 0,-26 5,-48 15,-68 9,-20 23,-37 40,-51 17,-14 37,-24 61,-31 23,-7 49,-11 76,-11 14,0 28,1 42,4 14,2 28,5 40,9 13,4 24,9 34,14 9,5 16,9 19,12 3,3 5,5 6,7 1,1 2,4 2,6 1,3 1,6 2,10 0,4 0,9 0,15 0,6 0,11 0,15 -1,5 -2,8 -3,11 -1,3 -2,6 -4,7 -2,1 -4,2 -6,2 -4,0 -9,-2 -17,-7 -7,-4 -17,-9 -28,-15 -11,-5 -24,-10 -39,-15 -15,-4 -32,-7 -51,-7 -18,0 -33,3 -46,7 -13,5 -24,11 -32,18 -9,8 -15,17 -19,27 -5,11 -7,22 -7,34 0,17 4,31 12,44 9,12 19,23 33,33 14,9 29,18 46,26 17,8 35,16 53,24 18,8 36,17 53,26 17,10 32,21 46,34 14,14 24,29 33,47 8,18 12,39 12,63z"/>
  <path id="1" class="fil5" d="M2367 1156c0,2 -1,5 -2,6 -2,2 -4,4 -7,5 -3,1 -8,2 -13,3 -6,1 -12,1 -20,1 -8,0 -15,0 -20,-1 -6,-1 -10,-2 -14,-3 -3,-1 -5,-3 -6,-5 -2,-1 -2,-4 -2,-6l0 -591c0,-2 0,-5 2,-6 1,-2 4,-4 7,-5 4,-1 8,-2 13,-3 6,-1 12,-1 20,-1 8,0 14,0 20,1 5,1 10,2 13,3 3,1 5,3 7,5 1,1 2,4 2,6l0 591z"/>
  <path id="2" class="fil5" d="M2808 1132c0,7 0,12 -1,16 0,4 -1,8 -3,11 -1,3 -3,5 -5,7 -2,1 -5,2 -8,2l-279 0c-8,0 -15,-2 -22,-7 -6,-5 -10,-14 -10,-26l0 -570c0,-2 1,-5 2,-6 2,-2 4,-4 7,-5 3,-1 8,-2 13,-3 6,-1 12,-1 20,-1 8,0 15,0 21,1 5,1 9,2 12,3 4,1 6,3 7,5 2,1 2,4 2,6l0 532 227 0c3,0 6,1 8,2 2,2 4,4 5,6 2,3 3,7 3,11 1,4 1,10 1,16z"/>
  <path id="3" class="fil5" d="M3030 1154c-1,3 -3,6 -5,8 -3,3 -6,4 -10,5 -4,2 -9,3 -16,3 -6,1 -14,1 -24,1 -7,0 -13,0 -18,0 -6,0 -10,-1 -14,-2 -4,0 -8,-1 -10,-2 -3,0 -6,-1 -7,-3 -2,-1 -4,-3 -5,-4 -1,-2 -2,-4 -3,-7l-207 -571c-2,-7 -4,-13 -4,-17 0,-4 1,-7 4,-10 3,-2 8,-3 14,-4 7,-1 16,-1 27,-1 9,0 16,0 21,1 6,0 10,1 13,2 3,2 5,3 6,5 2,2 3,5 5,8l181 518 1 0 176 -517c1,-3 2,-6 3,-8 2,-3 4,-4 7,-6 3,-1 8,-2 14,-2 6,-1 13,-1 23,-1 10,0 18,0 24,1 6,1 10,2 12,5 2,2 3,5 3,9 -1,5 -2,10 -5,17l-206 572z"/>
  <path id="4" class="fil5" d="M3640 1134c0,6 -1,11 -1,15 -1,4 -2,8 -4,11 -1,3 -3,5 -5,6 -2,1 -5,2 -7,2l-304 0c-7,0 -15,-2 -21,-7 -7,-5 -10,-14 -10,-26l0 -549c0,-12 3,-21 10,-26 6,-5 14,-7 21,-7l300 0c3,0 5,1 7,2 2,1 4,3 5,6 2,3 3,7 4,11 0,4 1,9 1,16 0,6 -1,10 -1,15 -1,4 -2,8 -4,10 -1,3 -3,5 -5,6 -2,1 -4,2 -7,2l-247 0 0 193 212 0c3,0 5,0 7,2 2,1 4,3 6,6 1,2 2,6 3,10 0,5 1,10 1,16 0,6 -1,11 -1,15 -1,4 -2,7 -3,10 -2,2 -4,4 -6,5 -2,1 -4,2 -7,2l-212 0 0 220 251 0c2,0 5,1 7,2 2,1 4,3 5,6 2,2 3,6 4,10 0,4 1,10 1,16z"/>
  <path id="5" class="fil5" d="M4143 1156c0,2 0,4 -1,6 -1,2 -3,4 -7,5 -3,1 -7,2 -13,3 -6,1 -14,1 -24,1 -8,0 -15,0 -20,-1 -6,-1 -10,-2 -13,-3 -4,-2 -6,-4 -8,-6 -2,-3 -3,-6 -5,-10l-58 -145c-6,-16 -14,-31 -21,-45 -7,-14 -16,-26 -26,-36 -10,-10 -22,-17 -36,-23 -13,-6 -30,-8 -49,-8l-56 0 0 262c0,2 -1,4 -2,6 -2,2 -4,4 -7,5 -3,1 -8,2 -13,3 -5,1 -12,1 -20,1 -8,0 -15,0 -21,-1 -5,-1 -9,-2 -12,-3 -4,-1 -6,-3 -7,-5 -2,-1 -2,-4 -2,-6l0 -570c0,-12 3,-21 10,-26 6,-5 14,-7 21,-7l134 0c16,0 30,0 40,1 11,1 20,2 29,3 24,4 46,10 65,19 18,9 34,20 47,34 12,14 22,29 28,47 7,17 10,37 10,58 0,20 -3,39 -9,55 -6,17 -14,31 -24,43 -11,13 -24,24 -39,33 -15,9 -32,17 -50,23 10,5 19,10 28,17 8,7 16,15 24,25 7,9 14,20 20,33 7,12 13,26 20,41l57 136c4,11 7,19 8,24 2,4 2,8 2,11zm-126 -433c0,-24 -6,-44 -17,-61 -11,-16 -29,-28 -56,-36 -8,-2 -17,-3 -27,-4 -10,-1 -24,-2 -40,-2l-71 0 0 207 82 0c22,0 41,-2 57,-7 16,-6 30,-13 40,-22 11,-10 19,-21 24,-33 5,-13 8,-27 8,-42z"/>
  <path id="6" class="fil5" d="M4843 1134c0,6 -1,11 -1,15 -1,4 -2,8 -4,11 -1,3 -3,5 -5,6 -2,1 -5,2 -7,2l-304 0c-7,0 -15,-2 -21,-7 -7,-5 -10,-14 -10,-26l0 -549c0,-12 3,-21 10,-26 6,-5 14,-7 21,-7l300 0c3,0 5,1 7,2 2,1 4,3 5,6 2,3 3,7 4,11 0,4 1,9 1,16 0,6 -1,10 -1,15 -1,4 -2,8 -4,10 -1,3 -3,5 -5,6 -2,1 -4,2 -7,2l-247 0 0 193 212 0c3,0 5,0 7,2 2,1 4,3 6,6 1,2 2,6 3,10 0,5 1,10 1,16 0,6 -1,11 -1,15 -1,4 -2,7 -3,10 -2,2 -4,4 -6,5 -2,1 -4,2 -7,2l-212 0 0 220 251 0c2,0 5,1 7,2 2,1 4,3 5,6 2,2 3,6 4,10 0,4 1,10 1,16z"/>
  <path id="7" class="fil5" d="M5411 851c0,54 -7,100 -21,140 -14,40 -35,73 -62,99 -26,26 -59,46 -98,59 -40,12 -86,19 -140,19l-134 0c-7,0 -15,-2 -21,-7 -7,-5 -10,-14 -10,-26l0 -549c0,-12 3,-21 10,-26 6,-5 14,-7 21,-7l143 0c55,0 101,7 139,21 38,13 69,33 95,59 25,26 45,57 58,94 13,37 20,78 20,124zm-88 4c0,-33 -4,-64 -13,-93 -8,-29 -22,-53 -40,-74 -18,-21 -41,-38 -69,-49 -27,-12 -63,-18 -107,-18l-85 0 0 479 86 0c41,0 75,-5 103,-15 27,-10 50,-25 69,-45 19,-20 33,-46 42,-76 9,-31 14,-67 14,-109z"/>
  <path id="8" class="fil5" d="M5960 637c0,6 -1,11 -1,16 -1,4 -2,8 -3,11 -1,3 -3,5 -5,7 -2,1 -4,2 -6,2 -4,0 -11,-3 -20,-9 -9,-6 -21,-13 -37,-21 -15,-7 -33,-14 -55,-20 -21,-6 -46,-9 -75,-9 -35,0 -67,6 -94,19 -28,12 -51,29 -71,51 -19,22 -34,48 -44,78 -10,30 -15,63 -15,98 0,40 5,74 17,105 11,30 26,56 46,77 20,21 44,37 72,47 27,11 57,17 90,17 20,0 40,-3 60,-7 20,-5 38,-12 56,-21l0 -180 -147 0c-5,0 -9,-2 -12,-8 -3,-5 -4,-13 -4,-25 0,-6 0,-11 1,-15 0,-5 1,-8 3,-11 1,-3 3,-4 5,-6 2,-1 4,-2 7,-2l201 0c4,0 7,1 11,2 3,2 7,3 9,6 3,3 6,6 7,10 2,5 3,10 3,16l0 234c0,8 -2,16 -5,22 -3,6 -9,11 -18,16 -10,4 -22,9 -37,14 -15,6 -30,10 -46,14 -16,4 -32,7 -49,9 -16,2 -32,3 -48,3 -49,0 -93,-8 -131,-22 -38,-15 -71,-36 -97,-63 -27,-28 -47,-60 -61,-98 -14,-38 -21,-81 -21,-128 0,-49 7,-93 22,-133 16,-39 37,-73 64,-101 28,-28 61,-49 99,-65 39,-15 82,-23 129,-23 24,0 46,2 67,6 22,5 40,9 57,15 16,6 30,12 41,18 12,7 19,12 24,16 4,4 7,9 8,15 2,5 3,13 3,23z"/>
  <path id="9" class="fil5" d="M6414 1134c0,6 0,11 -1,15 0,4 -2,8 -3,11 -2,3 -4,5 -6,6 -2,1 -4,2 -7,2l-303 0c-8,0 -15,-2 -22,-7 -6,-5 -10,-14 -10,-26l0 -549c0,-12 4,-21 10,-26 7,-5 14,-7 22,-7l300 0c2,0 5,1 7,2 2,1 4,3 5,6 1,3 2,7 3,11 1,4 1,9 1,16 0,6 0,10 -1,15 -1,4 -2,8 -3,10 -1,3 -3,5 -5,6 -2,1 -5,2 -7,2l-248 0 0 193 213 0c2,0 5,0 7,2 2,1 4,3 5,6 2,2 3,6 3,10 1,5 1,10 1,16 0,6 0,11 -1,15 0,4 -1,7 -3,10 -1,2 -3,4 -5,5 -2,1 -5,2 -7,2l-213 0 0 220 251 0c3,0 5,1 7,2 2,1 4,3 6,6 1,2 3,6 3,10 1,4 1,10 1,16z"/>
  <path class="fil6" d="M2024 1583c0,1 -1,2 -2,3 0,1 -2,1 -4,2 -1,0 -4,1 -7,1 -3,0 -7,0 -12,0 -5,0 -9,0 -12,0 -3,0 -6,-1 -8,-1 -2,-1 -3,-1 -4,-2 -1,-1 -1,-2 -1,-3l0 -233c0,-1 0,-2 1,-3 1,0 3,-1 5,-1 2,-1 4,-1 7,-2 4,0 7,0 12,0 5,0 9,0 12,0 3,1 6,1 7,2 2,0 4,1 4,1 1,1 2,2 2,3l0 233z"/>
  <path id="1" class="fil6" d="M2463 1359c0,2 0,4 -1,6 0,2 -1,3 -1,4 -1,1 -2,2 -4,3 -1,0 -2,0 -4,0l-104 0 0 211c0,1 -1,2 -2,3 0,1 -2,1 -4,2 -2,0 -4,1 -7,1 -3,0 -7,0 -12,0 -5,0 -9,0 -12,0 -3,0 -6,-1 -8,-1 -2,-1 -3,-1 -4,-2 -1,-1 -1,-2 -1,-3l0 -211 -105 0c-1,0 -3,0 -4,0 -1,-1 -2,-2 -3,-3 -1,-1 -1,-2 -2,-4 0,-2 0,-4 0,-6 0,-2 0,-5 0,-6 1,-2 1,-4 2,-5 1,-1 2,-2 3,-2 1,-1 3,-1 4,-1l259 0c2,0 3,0 4,1 2,0 3,1 4,2 0,1 1,3 1,5 1,1 1,4 1,6z"/>
  <path id="2" class="fil6" d="M2984 1520c0,11 -3,21 -10,30 -6,9 -15,17 -26,23 -12,6 -25,11 -41,14 -15,3 -32,5 -50,5 -12,0 -24,-1 -35,-2 -10,-2 -20,-4 -28,-6 -8,-2 -15,-4 -21,-6 -6,-2 -10,-4 -12,-5 -2,-2 -4,-4 -5,-6 -1,-2 -1,-5 -1,-9 0,-3 0,-5 0,-7 1,-2 1,-3 2,-4 1,-2 2,-2 3,-3 1,0 2,0 4,0 2,0 6,1 11,3 5,2 11,4 19,7 8,2 17,4 28,7 11,2 23,3 37,3 11,0 21,-1 30,-3 9,-2 17,-4 23,-8 7,-3 11,-7 15,-12 3,-5 5,-11 5,-18 0,-6 -2,-12 -7,-17 -5,-5 -11,-9 -19,-13 -8,-4 -17,-7 -27,-10 -10,-3 -20,-6 -31,-10 -10,-3 -21,-6 -31,-10 -10,-4 -19,-9 -27,-14 -7,-5 -14,-11 -19,-18 -5,-7 -7,-16 -7,-26 0,-10 3,-19 8,-27 6,-8 14,-14 24,-20 10,-5 22,-9 36,-12 14,-3 29,-4 45,-4 8,0 17,0 25,1 8,1 16,2 23,4 8,1 14,3 20,5 6,2 10,4 12,5 1,1 3,2 3,3 1,0 1,1 2,2 0,1 0,3 0,4 1,2 1,4 1,6 0,2 0,4 -1,6 0,2 0,3 -1,4 -1,2 -1,2 -2,3 -1,1 -3,1 -4,1 -2,0 -5,-1 -10,-3 -4,-2 -10,-3 -17,-6 -6,-2 -14,-4 -23,-6 -9,-2 -19,-2 -30,-2 -10,0 -19,0 -27,2 -8,2 -14,5 -19,8 -5,3 -9,6 -11,10 -3,4 -4,9 -4,13 0,7 2,13 7,18 5,5 11,9 19,13 9,3 18,7 28,10 10,3 20,6 31,9 10,4 21,7 31,11 10,4 19,8 27,14 8,5 15,11 20,18 5,7 7,15 7,25z"/>
  <path id="3" class="fil6" d="M3473 1464c0,19 -3,37 -10,53 -8,16 -18,29 -32,40 -14,11 -32,20 -54,26 -21,6 -46,9 -74,9 -28,0 -52,-3 -73,-9 -20,-5 -37,-13 -50,-23 -14,-11 -24,-24 -30,-39 -7,-15 -10,-33 -10,-53 0,-19 3,-37 11,-52 7,-16 17,-29 32,-40 14,-11 32,-19 53,-25 21,-6 46,-9 74,-9 28,0 52,2 72,8 20,5 37,13 51,23 14,11 24,23 30,39 7,15 10,32 10,52zm-52 2c0,-14 -2,-26 -6,-38 -4,-12 -10,-22 -19,-31 -8,-9 -20,-15 -35,-20 -14,-5 -32,-8 -54,-8 -21,0 -39,3 -54,8 -14,5 -26,12 -35,21 -9,9 -16,19 -20,31 -4,12 -6,24 -6,37 0,14 2,27 6,39 4,12 10,22 18,31 9,9 20,15 35,20 14,5 33,8 54,8 22,0 40,-3 55,-8 15,-6 27,-13 36,-22 9,-9 15,-19 19,-31 4,-11 6,-24 6,-37z"/>
  <path id="4" class="fil6" d="M3852 1574c0,3 0,5 -1,6 0,2 -1,3 -2,5 -1,1 -2,2 -3,2 -1,1 -3,1 -4,1l-165 0c-5,0 -9,-1 -13,-3 -4,-2 -6,-5 -6,-10l0 -225c0,-1 1,-2 2,-3 0,0 2,-1 4,-1 1,-1 4,-1 7,-2 4,0 7,0 12,0 5,0 9,0 12,0 3,1 6,1 8,2 2,0 3,1 4,1 0,1 1,2 1,3l0 210 134 0c1,0 3,0 4,1 1,0 2,1 3,2 1,1 2,3 2,5 1,1 1,3 1,6z"/>
  <path id="5" class="fil6" d="M4281 1498c0,15 -4,28 -10,40 -7,11 -17,21 -29,29 -12,8 -27,14 -45,18 -17,5 -37,7 -60,7 -20,0 -39,-2 -56,-6 -17,-4 -31,-10 -44,-17 -12,-8 -21,-17 -27,-29 -7,-11 -10,-24 -10,-39l0 -151c0,-1 0,-2 1,-3 1,0 2,-1 4,-1 2,-1 4,-1 8,-2 3,0 7,0 12,0 4,0 8,0 12,0 3,1 5,1 7,2 2,0 3,1 4,1 1,1 1,2 1,3l0 147c0,11 2,21 7,29 4,9 10,16 18,21 8,6 17,10 29,13 11,3 23,4 37,4 15,0 27,-1 39,-4 11,-3 20,-7 28,-13 8,-5 14,-12 18,-20 4,-8 6,-18 6,-29l0 -148c0,-1 0,-2 1,-3 1,0 2,-1 4,-1 2,-1 5,-1 8,-2 3,0 7,0 12,0 5,0 8,0 12,0 3,1 5,1 7,2 2,0 3,1 4,1 1,1 2,2 2,3l0 148z"/>
  <path id="6" class="fil6" d="M4719 1359c0,2 0,4 -1,6 0,2 -1,3 -1,4 -1,1 -2,2 -4,3 -1,0 -2,0 -4,0l-104 0 0 211c0,1 -1,2 -2,3 0,1 -2,1 -4,2 -1,0 -4,1 -7,1 -3,0 -7,0 -12,0 -5,0 -9,0 -12,0 -3,0 -6,-1 -8,-1 -2,-1 -3,-1 -4,-2 -1,-1 -1,-2 -1,-3l0 -211 -105 0c-1,0 -2,0 -4,0 -1,-1 -2,-2 -3,-3 0,-1 -1,-2 -2,-4 0,-2 0,-4 0,-6 0,-2 0,-5 0,-6 1,-2 2,-4 2,-5 1,-1 2,-2 3,-2 2,-1 3,-1 4,-1l259 0c2,0 3,0 4,1 2,0 3,1 4,2 0,1 1,3 1,5 1,1 1,4 1,6z"/>
  <path id="7" class="fil6" d="M4929 1583c0,1 0,2 -1,3 -1,1 -2,1 -4,2 -2,0 -5,1 -8,1 -3,0 -7,0 -12,0 -4,0 -8,0 -11,0 -4,0 -6,-1 -8,-1 -2,-1 -3,-1 -4,-2 -1,-1 -1,-2 -1,-3l0 -233c0,-1 0,-2 1,-3 1,0 2,-1 4,-1 2,-1 5,-1 8,-2 3,0 7,0 11,0 5,0 9,0 12,0 3,1 6,1 8,2 2,0 3,1 4,1 1,1 1,2 1,3l0 233z"/>
  <path id="8" class="fil6" d="M5447 1464c0,19 -4,37 -11,53 -7,16 -18,29 -32,40 -14,11 -31,20 -53,26 -21,6 -46,9 -74,9 -28,0 -53,-3 -73,-9 -21,-5 -37,-13 -51,-23 -13,-11 -23,-24 -30,-39 -6,-15 -9,-33 -9,-53 0,-19 3,-37 10,-52 7,-16 18,-29 32,-40 14,-11 32,-19 54,-25 21,-6 46,-9 74,-9 28,0 51,2 72,8 20,5 37,13 51,23 13,11 23,23 30,39 7,15 10,32 10,52zm-53 2c0,-14 -2,-26 -5,-38 -4,-12 -10,-22 -19,-31 -9,-9 -20,-15 -35,-20 -14,-5 -32,-8 -54,-8 -21,0 -39,3 -54,8 -15,5 -26,12 -35,21 -10,9 -16,19 -20,31 -4,12 -6,24 -6,37 0,14 2,27 6,39 3,12 9,22 18,31 9,9 20,15 35,20 14,5 32,8 54,8 22,0 40,-3 55,-8 14,-6 26,-13 35,-22 9,-9 16,-19 20,-31 3,-11 5,-24 5,-37z"/>
  <path id="9" class="fil6" d="M5914 1575c0,2 -1,4 -2,6 -1,2 -3,3 -5,4 -2,1 -4,2 -7,3 -3,0 -5,1 -8,1l-16 0c-5,0 -10,-1 -14,-2 -4,0 -7,-1 -11,-3 -3,-2 -7,-4 -10,-8 -4,-3 -7,-7 -11,-12l-114 -138c-6,-7 -12,-14 -18,-22 -6,-8 -12,-16 -17,-23l-1 0c1,9 1,18 1,28 1,9 1,18 1,28l0 146c0,1 -1,2 -2,3 0,1 -2,1 -4,2 -2,0 -4,1 -7,1 -3,0 -7,0 -12,0 -5,0 -9,0 -12,0 -4,0 -6,-1 -8,-1 -2,-1 -3,-1 -4,-2 -1,-1 -1,-2 -1,-3l0 -224c0,-5 2,-9 7,-11 4,-2 9,-3 14,-3l24 0c6,0 11,0 15,1 4,1 7,2 10,3 3,2 6,4 9,6 3,3 6,6 9,10l88 107c5,6 10,12 15,19 5,6 10,12 15,18 4,6 9,12 13,18 5,5 10,11 14,17l0 0c0,-10 0,-20 0,-31 -1,-10 -1,-21 -1,-31l0 -131c0,-1 1,-2 2,-3 1,0 2,-1 4,-2 2,0 4,-1 7,-1 3,0 8,0 13,0 4,0 8,0 11,0 3,0 6,1 8,1 2,1 3,2 4,2 1,1 1,2 1,3l0 224z"/>
  <path id="10" class="fil6" d="M6320 1520c0,11 -3,21 -10,30 -6,9 -15,17 -26,23 -12,6 -25,11 -41,14 -15,3 -32,5 -50,5 -12,0 -24,-1 -35,-2 -10,-2 -20,-4 -28,-6 -8,-2 -15,-4 -21,-6 -6,-2 -10,-4 -12,-5 -2,-2 -4,-4 -5,-6 -1,-2 -1,-5 -1,-9 0,-3 0,-5 0,-7 1,-2 1,-3 2,-4 1,-2 2,-2 3,-3 1,0 2,0 4,0 2,0 6,1 11,3 5,2 11,4 19,7 8,2 17,4 28,7 11,2 23,3 37,3 11,0 21,-1 30,-3 9,-2 17,-4 23,-8 7,-3 11,-7 15,-12 3,-5 5,-11 5,-18 0,-6 -2,-12 -7,-17 -5,-5 -11,-9 -19,-13 -8,-4 -17,-7 -27,-10 -10,-3 -20,-6 -31,-10 -10,-3 -21,-6 -31,-10 -10,-4 -19,-9 -27,-14 -7,-5 -14,-11 -19,-18 -5,-7 -7,-16 -7,-26 0,-10 3,-19 8,-27 6,-8 14,-14 24,-20 10,-5 22,-9 36,-12 14,-3 29,-4 45,-4 8,0 17,0 25,1 8,1 16,2 24,4 7,1 13,3 19,5 6,2 10,4 12,5 1,1 3,2 3,3 1,0 1,1 2,2 0,1 0,3 0,4 1,2 1,4 1,6 0,2 0,4 -1,6 0,2 0,3 -1,4 0,2 -1,2 -2,3 -1,1 -3,1 -4,1 -2,0 -5,-1 -10,-3 -4,-2 -10,-3 -17,-6 -6,-2 -14,-4 -23,-6 -9,-2 -19,-2 -30,-2 -10,0 -19,0 -27,2 -8,2 -14,5 -19,8 -5,3 -9,6 -11,10 -3,4 -4,9 -4,13 0,7 2,13 7,18 5,5 12,9 19,13 9,3 18,7 28,10 10,3 20,6 31,9 10,4 21,7 31,11 10,4 19,8 27,14 8,5 15,11 20,18 5,7 7,15 7,25z"/>
 </g>
</svg>
