<svg width="1889" height="837" viewBox="0 0 1889 837" fill="none" xmlns="http://www.w3.org/2000/svg">
<path fill-rule="evenodd" clip-rule="evenodd" d="M742.712 0L403.712 128L497.712 209C423.712 299 349.712 389 275.712 479C257.712 502 48.7119 772 37.7119 763C27.7119 756 23.7119 658 11.7119 631C-2.28811 600 -0.288114 624 0.711886 642C3.71189 675 4.71189 709 6.71189 743C8.71189 765 9.71189 787 10.7119 809C12.7119 859 37.7119 819 53.7119 800C68.7119 782 84.7119 765 99.7119 747C110.712 735 120.712 722 130.712 710C178.712 654 227.712 599 275.712 543C294.712 520 313.712 498 332.712 476C407.712 389 482.712 302 557.712 215C578.712 189 600.712 164 622.712 139C655.712 101 688.712 62 721.712 24C728.712 16 735.712 8 742.712 0C721.712 24 699.712 49 678.712 74C590.712 175 503.712 277 416.712 379C405.712 391 394.712 404 383.712 417C372.712 430 361.712 442 350.712 455C306.712 506 263.712 557 219.712 607C155.712 681 92.7119 755 28.7119 829C36.7119 820 45.7119 810 53.7119 800C64.7119 787 75.7119 775 86.7119 762C206.712 622 327.712 482 447.712 343C512.712 267 577.712 191 642.712 116C675.712 77 709.712 38 742.712 0Z" fill="url(#paint0_linear_40_214)"/>
<path d="M436.712 415H677.712V466H436.712V615H703.712V666H378.712V482L436.712 415Z" fill="url(#paint1_linear_40_214)"/>
<path fill-rule="evenodd" clip-rule="evenodd" d="M405.712 255C385.712 210 348.712 187 299.712 178C179.712 155 99.7119 185 70.7119 286C64.7119 355 98.7119 398 167.712 421C240.712 440 291.712 450 329.712 469C379.712 495 383.712 532 358.712 574C321.712 619 240.712 625 174.712 593C118.712 565 107.712 519 100.712 461C83.7119 457 54.7119 408 36.7119 357L51.7119 506C65.7119 588 101.712 639 161.712 656C268.712 686 351.712 669 409.712 603C447.712 525 444.712 459 371.712 416C264.712 360 149.712 382 132.712 314C123.712 241 178.712 216 291.712 233C325.712 241 347.712 263 356.712 300L405.712 255Z" fill="url(#paint2_linear_40_214)"/>
<path fill-rule="evenodd" clip-rule="evenodd" d="M241.712 621C272.712 589 304.712 557 336.712 525C348.712 513 360.712 501 371.712 490C445.712 415 519.712 341 593.712 267L698.712 343L741.712 3C730.712 15 719.712 28 708.712 41C697.712 53 687.712 65 677.712 77C634.712 127 591.712 176 549.712 226C538.712 238 528.712 250 518.712 262C507.712 275 496.712 287 485.712 300C463.712 325 441.712 351 419.712 376C408.712 389 397.712 402 386.712 414C270.712 550 153.712 685 37.7121 820C5.71206 858 43.7121 819 52.7121 810C64.7121 798 76.7121 786 87.7121 774C99.7121 762 111.712 751 123.712 739C135.712 727 147.712 715 158.712 703C169.712 692 180.712 681 191.712 671L241.712 621Z" fill="url(#paint3_linear_40_214)"/>
<path fill-rule="evenodd" clip-rule="evenodd" d="M221.712 609L171.712 659C182.712 647 194.712 636 205.712 624L221.712 609Z" fill="#BDBFC1"/>
<path d="M808.712 332L836.712 330C837.712 339 841.712 346 846.712 350C851.712 355 858.712 357 866.712 357C875.712 357 882.712 355 887.712 351C892.712 347 894.712 343 894.712 337C894.712 334 893.712 331 891.712 329C889.712 326 886.712 324 881.712 323C878.712 321 870.712 319 858.712 316C843.712 313 832.712 308 826.712 302C817.712 295 813.712 285 813.712 274C813.712 267 815.712 260 819.712 254C823.712 247 829.712 243 837.712 239C844.712 236 854.712 234 864.712 234C882.712 234 895.712 238 904.712 246C913.712 254 918.712 264 918.712 278L890.712 279C889.712 271 886.712 266 882.712 263C878.712 260 872.712 258 864.712 258C856.712 258 849.712 260 845.712 263C842.712 265 840.712 268 840.712 272C840.712 275 842.712 278 845.712 281C848.712 284 857.712 287 871.712 290C885.712 293 895.712 297 901.712 300C908.712 304 913.712 309 917.712 315C921.712 321 923.712 328 923.712 337C923.712 345 920.712 353 916.712 360C911.712 367 905.712 372 897.712 376C889.712 379 878.712 381 866.712 381C848.712 381 834.712 377 825.712 368C815.712 360 810.712 348 808.712 332Z" fill="#AAAAAA"/>
<path d="M947.712 262V237H974.712V262H947.712ZM947.712 378V276H974.712V378H947.712Z" fill="#AAAAAA"/>
<path d="M1002.71 378V237H1029.71V378H1002.71Z" fill="#AAAAAA"/>
<path d="M1085.71 378L1043.71 276H1072.71L1091.71 328L1097.71 346C1098.71 341 1099.71 338 1099.71 337C1100.71 334 1101.71 331 1102.71 328L1122.71 276H1150.71L1109.71 378H1085.71Z" fill="#AAAAAA"/>
<path d="M1225.71 346L1252.71 350C1249.71 360 1243.71 368 1236.71 373C1228.71 378 1219.71 381 1208.71 381C1190.71 381 1177.71 375 1168.71 363C1162.71 354 1158.71 342 1158.71 328C1158.71 311 1163.71 298 1172.71 288C1180.71 278 1192.71 274 1205.71 274C1220.71 274 1232.71 279 1241.71 289C1250.71 299 1254.71 314 1254.71 335H1186.71C1186.71 343 1188.71 349 1193.71 354C1197.71 358 1202.71 361 1208.71 361C1212.71 361 1216.71 359 1219.71 357C1222.71 355 1224.71 351 1225.71 346ZM1227.71 318C1227.71 311 1225.71 305 1221.71 301C1217.71 296 1212.71 294 1207.71 294C1201.71 294 1196.71 297 1192.71 301C1188.71 305 1186.71 311 1187.71 318H1227.71Z" fill="#AAAAAA"/>
<path d="M1302.71 378H1275.71V276H1300.71V290C1304.71 283 1308.71 279 1311.71 277C1315.71 275 1319.71 274 1323.71 274C1329.71 274 1335.71 275 1341.71 279L1333.71 302C1328.71 299 1324.71 298 1320.71 298C1316.71 298 1313.71 299 1310.71 301C1308.71 303 1306.71 307 1304.71 312C1302.71 318 1302.71 329 1302.71 347V378Z" fill="#AAAAAA"/>
<path d="M1408.71 378V237H1512.71V261H1436.71V292H1507.71V316H1436.71V354H1515.71V378H1408.71Z" fill="#AAAAAA"/>
<path d="M1633.71 378H1608.71V363C1604.71 369 1599.71 373 1593.71 376C1588.71 379 1582.71 381 1576.71 381C1564.71 381 1554.71 376 1546.71 367C1537.71 357 1533.71 344 1533.71 327C1533.71 309 1537.71 296 1545.71 287C1554.71 278 1564.71 274 1576.71 274C1588.71 274 1598.71 278 1606.71 288V237H1633.71V378ZM1561.71 325C1561.71 336 1562.71 344 1565.71 349C1570.71 356 1576.71 360 1584.71 360C1590.71 360 1595.71 357 1600.71 352C1604.71 346 1606.71 338 1606.71 328C1606.71 316 1604.71 307 1600.71 302C1595.71 297 1590.71 294 1583.71 294C1577.71 294 1572.71 297 1567.71 302C1563.71 307 1561.71 315 1561.71 325Z" fill="#AAAAAA"/>
<path d="M1657.71 385L1688.71 389C1689.71 392 1690.71 395 1692.71 396C1694.71 398 1698.71 399 1704.71 399C1711.71 399 1716.71 398 1720.71 396C1722.71 394 1724.71 392 1725.71 389C1726.71 387 1726.71 383 1726.71 377L1727.71 362C1718.71 373 1708.71 378 1696.71 378C1682.71 378 1671.71 372 1663.71 361C1657.71 352 1654.71 340 1654.71 327C1654.71 309 1658.71 296 1666.71 287C1674.71 278 1685.71 274 1697.71 274C1710.71 274 1720.71 279 1728.71 290V276H1753.71V368C1753.71 380 1752.71 389 1750.71 395C1749.71 401 1746.71 405 1742.71 409C1739.71 412 1734.71 415 1728.71 417C1722.71 419 1714.71 420 1705.71 420C1688.71 420 1675.71 417 1668.71 411C1661.71 405 1657.71 397 1657.71 388C1657.71 387 1657.71 386 1657.71 385ZM1681.71 325C1681.71 336 1684.71 344 1688.71 349C1692.71 354 1697.71 356 1703.71 356C1710.71 356 1715.71 354 1720.71 349C1725.71 343 1727.71 336 1727.71 326C1727.71 315 1725.71 307 1720.71 302C1716.71 297 1710.71 294 1704.71 294C1697.71 294 1692.71 297 1688.71 302C1684.71 307 1681.71 315 1681.71 325Z" fill="#AAAAAA"/>
<path d="M1839.71 346L1867.71 350C1863.71 360 1858.71 368 1850.71 373C1843.71 378 1833.71 381 1822.71 381C1804.71 381 1791.71 375 1783.71 363C1776.71 354 1772.71 342 1772.71 328C1772.71 311 1777.71 298 1786.71 288C1795.71 278 1806.71 274 1819.71 274C1834.71 274 1847.71 279 1855.71 289C1864.71 299 1868.71 314 1868.71 335H1800.71C1800.71 343 1803.71 349 1807.71 354C1811.71 358 1816.71 361 1822.71 361C1827.71 361 1830.71 359 1833.71 357C1836.71 355 1838.71 351 1839.71 346ZM1841.71 318C1841.71 311 1839.71 305 1835.71 301C1831.71 296 1827.71 294 1821.71 294C1815.71 294 1810.71 297 1806.71 301C1803.71 305 1801.71 311 1801.71 318H1841.71Z" fill="#AAAAAA"/>
<path d="M808.712 628.054V490.042H837.227V628.054H808.712Z" fill="#677DBC" stroke="#677DBC" stroke-width="0.900001"/>
<path d="M894.256 628.054V512.854H853.195V490.042H962.692V512.854H922.771V628.054H894.256Z" fill="#677DBC" stroke="#677DBC" stroke-width="0.900001"/>
<path d="M1027.71 583.57L1053.94 580.148C1056.22 589.272 1059.64 596.116 1064.2 600.678C1068.77 605.241 1075.61 606.381 1084.74 606.381C1092.72 606.381 1099.56 605.241 1104.13 600.678C1108.69 597.257 1110.97 592.694 1110.97 588.132C1110.97 584.71 1109.83 582.429 1108.69 580.148C1106.41 577.867 1102.98 575.585 1098.42 573.304C1095 572.164 1088.16 571.023 1076.75 567.601C1061.92 564.179 1050.52 559.617 1044.81 553.914C1036.83 545.93 1032.27 536.805 1032.27 526.54C1032.27 518.556 1034.55 512.853 1037.97 506.009C1042.53 500.306 1048.24 495.744 1055.08 492.322C1063.06 488.9 1072.19 487.76 1082.45 487.76C1099.56 487.76 1113.25 491.182 1121.23 499.166C1130.36 507.15 1134.92 517.415 1134.92 529.962L1107.55 531.102C1106.41 523.118 1104.13 518.556 1099.56 515.134C1096.14 511.712 1090.44 510.572 1082.45 510.572C1074.47 510.572 1067.63 512.853 1063.06 515.134C1060.78 517.415 1058.5 520.837 1058.5 524.259C1058.5 527.68 1060.78 529.962 1063.06 532.243C1066.49 535.665 1075.61 539.086 1088.16 541.368C1101.84 544.789 1112.11 548.211 1118.95 551.633C1124.66 555.055 1130.36 559.617 1133.78 565.32C1137.2 572.164 1139.48 579.007 1139.48 588.132C1139.48 596.116 1137.2 602.96 1132.64 609.803C1128.08 616.647 1122.37 622.35 1114.39 625.771C1106.41 629.193 1096.14 630.334 1083.59 630.334C1066.49 630.334 1052.8 626.912 1043.67 617.787C1034.55 609.803 1028.85 598.397 1027.71 583.57Z" fill="#677DBC" stroke="#677DBC" stroke-width="0.900001"/>
<path d="M1156.59 576.727C1156.59 567.602 1158.87 559.618 1163.44 551.634C1166.86 542.509 1173.7 536.806 1181.69 532.244C1189.67 527.682 1197.65 525.4 1207.92 525.4C1222.75 525.4 1235.29 531.103 1245.56 540.228C1254.68 550.493 1259.25 563.04 1259.25 577.868C1259.25 592.695 1254.68 605.242 1244.42 615.507C1235.29 625.772 1222.75 630.335 1207.92 630.335C1198.79 630.335 1190.81 628.054 1181.69 624.632C1173.7 620.07 1166.86 614.367 1163.44 606.382C1158.87 598.398 1156.59 588.133 1156.59 576.727ZM1183.97 577.868C1183.97 588.133 1186.25 596.117 1190.81 600.679C1195.37 606.382 1201.08 608.664 1207.92 608.664C1214.76 608.664 1220.47 606.382 1225.03 600.679C1229.59 596.117 1231.87 588.133 1231.87 577.868C1231.87 567.602 1229.59 560.759 1225.03 555.056C1220.47 550.493 1214.76 547.072 1207.92 547.072C1201.08 547.072 1195.37 550.493 1190.81 555.056C1186.25 560.759 1183.97 568.743 1183.97 577.868Z" fill="#677DBC" stroke="#677DBC" stroke-width="0.900001"/>
<path d="M1279.78 628.054V490.042H1307.15V628.054H1279.78Z" fill="#677DBC" stroke="#677DBC" stroke-width="0.900001"/>
<path d="M1399.54 628.054V613.226C1396.12 617.788 1391.55 622.351 1385.85 625.773C1379.01 629.194 1373.3 630.335 1366.46 630.335C1359.62 630.335 1353.91 629.194 1348.21 625.773C1343.65 623.491 1339.09 618.929 1336.81 613.226C1334.52 608.664 1333.38 600.68 1333.38 591.555V527.682H1359.62V574.446C1359.62 588.133 1360.76 596.117 1360.76 599.539C1361.9 602.961 1364.18 605.242 1366.46 607.523C1368.74 609.804 1372.16 609.804 1376.73 609.804C1381.29 609.804 1384.71 608.664 1388.13 606.382C1391.55 604.101 1394.98 600.68 1396.12 597.258C1397.26 593.836 1398.4 584.711 1398.4 569.884V527.682H1424.63V628.054H1399.54Z" fill="#677DBC" stroke="#677DBC" stroke-width="0.900001"/>
<path d="M1496.49 527.682V549.353H1479.38V589.274C1479.38 597.258 1479.38 602.961 1479.38 604.101C1479.38 605.242 1480.52 606.382 1481.66 607.523C1482.8 607.523 1483.94 608.664 1486.22 608.664C1488.5 608.664 1491.93 607.523 1496.49 606.382L1498.77 626.913C1493.07 629.194 1486.22 630.335 1478.24 630.335C1473.68 630.335 1469.11 629.194 1465.69 628.054C1461.13 626.913 1458.85 624.632 1456.57 621.21C1455.43 618.929 1454.29 615.507 1453.15 610.945C1453.15 608.664 1452.01 601.82 1452.01 592.695V549.353H1440.6V527.682H1452.01V508.292L1479.38 492.323V527.682H1496.49Z" fill="#677DBC" stroke="#677DBC" stroke-width="0.900001"/>
<path d="M1515.88 513.994V490.042H1542.11V513.994H1515.88ZM1515.88 628.054V527.682H1542.11V628.054H1515.88Z" fill="#677DBC" stroke="#677DBC" stroke-width="0.900001"/>
<path d="M1562.64 576.727C1562.64 567.602 1564.92 559.618 1569.49 551.634C1574.05 542.509 1579.75 536.806 1587.74 532.244C1595.72 527.682 1604.85 525.4 1613.97 525.4C1628.8 525.4 1641.34 531.103 1651.61 540.228C1660.73 550.493 1665.3 563.04 1665.3 577.868C1665.3 592.695 1660.73 605.242 1651.61 615.507C1641.34 625.772 1628.8 630.335 1613.97 630.335C1604.85 630.335 1596.86 628.054 1587.74 624.632C1579.75 620.07 1574.05 614.367 1569.49 606.382C1564.92 598.398 1562.64 588.133 1562.64 576.727ZM1590.02 577.868C1590.02 588.133 1592.3 596.117 1596.86 600.679C1601.42 606.382 1607.13 608.664 1613.97 608.664C1620.81 608.664 1626.52 606.382 1631.08 600.679C1636.78 596.117 1639.06 588.133 1639.06 577.868C1639.06 567.602 1636.78 560.759 1631.08 555.056C1626.52 550.493 1620.81 547.072 1613.97 547.072C1607.13 547.072 1601.42 550.493 1596.86 555.056C1592.3 560.759 1590.02 568.743 1590.02 577.868Z" fill="#677DBC" stroke="#677DBC" stroke-width="0.900001"/>
<path d="M1777.07 628.054H1750.84V576.727C1750.84 566.462 1750.84 559.618 1749.7 556.196C1748.56 552.775 1746.28 550.493 1744 548.212C1740.58 547.072 1738.29 545.931 1734.87 545.931C1730.31 545.931 1725.75 547.072 1722.33 549.353C1718.9 552.775 1715.48 556.196 1714.34 559.618C1713.2 564.181 1712.06 571.024 1712.06 582.43V628.054H1685.83V527.682H1710.92V542.509C1718.9 531.103 1730.31 525.4 1744 525.4C1749.7 525.4 1754.26 526.541 1759.97 528.822C1764.53 531.103 1767.95 533.385 1770.23 536.806C1773.65 540.228 1774.79 543.65 1775.93 548.212C1777.07 552.775 1777.07 558.478 1777.07 565.321V628.054Z" fill="#677DBC" stroke="#677DBC" stroke-width="0.900001"/>
<path d="M1794.18 599.539L1821.56 596.117C1822.7 600.679 1824.98 605.242 1828.4 607.523C1831.82 609.804 1836.39 610.945 1842.09 610.945C1848.93 610.945 1854.63 609.804 1858.06 607.523C1860.34 605.242 1861.48 602.961 1861.48 600.679C1861.48 598.398 1860.34 597.258 1859.2 594.977C1858.06 593.836 1855.78 592.695 1851.21 591.555C1829.54 586.992 1815.85 582.43 1810.15 579.008C1802.17 573.305 1798.75 566.462 1798.75 556.196C1798.75 548.212 1802.17 540.228 1809.01 534.525C1815.85 528.822 1826.12 525.4 1839.81 525.4C1853.49 525.4 1863.76 527.682 1870.6 532.244C1877.45 536.806 1882.01 543.65 1884.29 552.775L1859.2 557.337C1858.06 552.775 1856.92 550.493 1853.49 548.212C1850.07 545.931 1846.65 544.79 1840.95 544.79C1834.1 544.79 1828.4 545.931 1826.12 548.212C1823.84 549.353 1822.7 550.493 1822.7 552.775C1822.7 555.056 1823.84 556.196 1824.98 558.478C1827.26 559.618 1836.39 561.899 1850.07 565.321C1863.76 568.743 1874.02 572.165 1879.73 576.727C1885.43 582.43 1887.71 588.133 1887.71 597.258C1887.71 606.382 1884.29 614.367 1876.31 620.07C1868.32 626.913 1858.06 630.335 1842.09 630.335C1828.4 630.335 1818.14 628.054 1810.15 622.351C1802.17 616.648 1796.46 608.664 1794.18 599.539Z" fill="#677DBC" stroke="#677DBC" stroke-width="0.900001"/>
<defs>
<linearGradient id="paint0_linear_40_214" x1="724.042" y1="113.841" x2="-101.5" y2="725" gradientUnits="userSpaceOnUse">
<stop stop-color="#E6E7E8"/>
<stop offset="0.225962" stop-color="#FEFEFE"/>
<stop offset="0.941176" stop-color="#BDBDBD"/>
</linearGradient>
<linearGradient id="paint1_linear_40_214" x1="456.102" y1="426.289" x2="626.702" y2="654.616" gradientUnits="userSpaceOnUse">
<stop stop-color="#6376B1"/>
<stop offset="1" stop-color="#BABABA"/>
</linearGradient>
<linearGradient id="paint2_linear_40_214" x1="311.5" y1="271.5" x2="185.926" y2="478.977" gradientUnits="userSpaceOnUse">
<stop stop-color="#D3D3D3"/>
<stop offset="1" stop-color="#677DBC"/>
</linearGradient>
<linearGradient id="paint3_linear_40_214" x1="48.0581" y1="733.025" x2="718.372" y2="106.166" gradientUnits="userSpaceOnUse">
<stop stop-color="#838383"/>
<stop offset="0.971154" stop-color="#D3D4D6"/>
</linearGradient>
</defs>
</svg>
